<svg width="154" height="115" viewBox="0 0 154 115" fill="none" xmlns="http://www.w3.org/2000/svg">
<path d="M70.6463 85.1382C70.8242 89.1846 70.0872 93.2197 68.4879 96.9561C66.8885 100.692 64.466 104.038 61.393 106.755L61.3687 106.774C55.0072 112.287 46.7226 115.202 38.2257 114.916L38.2792 114.916C33.1433 115.187 28.0093 114.35 23.2418 112.464C18.4743 110.577 14.1904 107.688 10.6942 104L10.6748 103.981C3.66577 95.8522 0.0907871 85.4174 0.677944 74.8022L0.673077 74.9019C0.347346 63.878 2.44374 52.914 6.82089 42.7492L6.62647 43.2574C10.1214 35.2888 14.9685 27.9546 20.9632 21.5642L20.9098 21.6212C25.8649 16.3672 31.6066 11.8781 37.939 8.30692L38.2889 8.12641C43.0782 5.42596 48.0766 3.09609 53.238 1.15816L53.9961 0.906411L69.2271 26.0339C62.8979 28.5298 57.3424 32.5928 53.1068 37.8234L53.0436 37.9042C48.8262 42.8143 46.1809 48.8292 45.4378 55.1989L45.4232 55.3509C48.7375 55.432 51.9968 56.1967 54.9876 57.5949C57.9784 58.993 60.6332 60.993 62.778 63.4639L62.8072 63.4972C68.2605 69.4318 71.0816 77.239 70.6511 85.2047L70.656 85.1334L70.6463 85.1382ZM153.012 85.1382C153.188 89.1847 152.449 93.2194 150.849 96.9555C149.249 100.692 146.826 104.037 143.754 106.755L143.73 106.774C137.37 112.289 129.084 115.204 120.587 114.916L120.64 114.916C115.504 115.189 110.37 114.352 105.602 112.465C100.834 110.579 96.5506 107.689 93.0554 104L93.0359 103.977C86.024 95.8472 82.4487 85.4098 83.0391 74.7927L83.0342 74.8924C82.7085 63.8685 84.8049 52.9045 89.182 42.7397L88.9876 43.2479C92.4808 35.2795 97.3263 27.9452 103.32 21.5547L103.266 21.6117C108.223 16.3576 113.966 11.8685 120.3 8.2974L120.65 8.11691C125.438 5.41455 130.437 3.08461 135.599 1.14866L136.357 0.896913L151.583 26.0244C145.253 28.5233 139.698 32.5897 135.463 37.8234L135.4 37.9042C131.182 42.8143 128.537 48.8292 127.794 55.1989L127.78 55.3509C131.092 55.4316 134.351 56.1961 137.34 57.5943C140.329 58.9925 142.982 60.9928 145.125 63.4639L145.154 63.4972C150.613 69.4273 153.44 77.2335 153.012 85.1999L153.017 85.1287L153.012 85.1382Z" fill="#EB2B00" fill-opacity="0.4"/>
</svg>
