<svg width="164" height="34" viewBox="0 0 164 34" fill="none" xmlns="http://www.w3.org/2000/svg">
<path d="M162.599 11.8202C163.885 12.8643 162.523 14.5159 161.388 13.6807C159.989 12.7885 156.811 12.3709 156.414 14.3451C155.904 17.4586 164.131 15.6741 163.998 20.7238C163.866 25.5459 156.906 25.6597 154.296 23.4955C153.672 22.983 153.691 22.1476 154.031 21.635C154.523 21.1415 155.072 20.9707 155.714 21.5021C157.265 22.5653 161.256 23.3626 161.54 20.6669C161.294 17.8572 153.426 19.5468 154.012 14.1553C154.447 10.4724 159.989 9.80785 162.599 11.8202ZM150.191 12.5606V19.4329C150.191 26.533 138.787 26.533 138.787 19.4329V12.5606C138.787 10.8521 141.265 10.7761 141.265 12.5606V19.4329C141.265 23.1727 147.714 23.4006 147.714 19.4329V12.5606C147.714 10.871 150.191 10.7381 150.191 12.5606ZM72.0979 10.8331C75.4076 11.0038 78.8687 13.3009 78.8687 17.8003C78.8687 22.2995 75.4076 24.6346 72.0979 24.6346C68.599 24.7865 64.9677 22.4514 64.9677 17.8003C64.9677 13.1301 68.599 10.8331 72.0979 10.8331ZM88.7605 11.3076C93.5644 11.3076 94.5478 17.7623 90.5384 19.3759L93.0537 22.4514C94.0372 23.9133 92.0703 25.318 90.9355 23.8753L88.0797 19.7747H85.1103V23.2108C85.1103 24.8624 82.5949 24.9194 82.5949 23.2488V12.4657C82.5949 11.8012 83.1056 11.3076 83.7297 11.3076H88.7605ZM49.572 11.1369C50.1205 11.1369 50.442 11.4596 50.7636 11.8202L54.9243 17.4586L59.2365 11.6113C59.8606 10.8331 61.3926 11.1369 61.3926 12.4467V23.1349C61.3926 23.9701 60.863 24.4447 60.2578 24.4447C59.5769 24.4447 59.0474 23.9701 59.0474 23.1349V16.1107L55.9079 20.0974C55.2269 20.9326 54.3759 20.9326 53.7518 20.0974L50.9337 16.1107V23.1349C50.9337 23.9701 50.2529 24.4447 49.572 24.4447C48.9668 24.4447 48.4372 23.9701 48.4372 23.1349V12.4467C48.4372 11.4596 49.2694 11.1369 49.572 11.1369ZM102.473 11.1369C104.932 11.1369 107.144 12.7885 107.144 15.9588C107.144 18.9583 104.932 20.6289 102.473 20.6289H99.3143V23.1349C99.3143 23.9701 98.7848 24.4447 98.1039 24.4447C97.4798 24.4447 96.8178 23.9701 96.8178 23.1349V12.4467C96.8178 11.8202 97.3096 11.1369 98.1039 11.1369H102.473ZM120.535 11.3076C121.197 11.3076 121.708 11.8012 121.708 12.4847V23.2678C121.708 23.9321 121.197 24.4447 120.535 24.4447C119.854 24.4447 119.249 23.9321 119.249 23.2678V19.1102H113.084V23.2678C113.084 23.9321 112.592 24.4447 111.93 24.4447C111.079 24.4447 110.587 23.9321 110.587 23.2678V12.4847C110.587 11.8012 111.079 11.3076 111.93 11.3076C112.592 11.3076 113.084 11.8012 113.084 12.4847V16.6233H119.249V12.4847C119.249 11.8012 119.854 11.3076 120.535 11.3076ZM133.699 11.3076C135.439 11.3076 135.401 13.7756 133.699 13.7756H128.252V16.6233H133.018C134.701 16.6233 134.701 19.1102 133.018 19.1102H128.252V21.9578H134.021C135.742 21.9578 135.874 24.4447 134.021 24.4447H126.909C126.247 24.4447 125.737 23.9321 125.737 23.2678V12.4847C125.737 11.8012 126.247 11.3076 126.909 11.3076H133.699ZM71.8898 13.301C69.7716 13.301 67.4642 14.8008 67.4642 17.8003C67.4642 20.7808 69.7716 22.2995 71.8898 22.2995C74.0648 22.2995 76.3911 20.7808 76.3911 17.8003C76.3911 14.8008 74.0648 13.301 71.8898 13.301ZM102.473 13.5288H99.3143V18.2559H102.473C103.74 18.2559 104.742 17.1358 104.742 15.9588C104.742 14.63 103.74 13.5288 102.473 13.5288ZM88.7605 13.6047H85.1103V17.5914H88.7605C91.2192 17.5914 91.3705 13.6047 88.7605 13.6047Z" fill="white"/>
<path d="M33.4345 21.2739C31.5906 28.7098 24.8442 34 16.8985 34C8.91673 34 2.2284 28.3966 0.460087 20.9301C2.58639 20.9301 4.57418 20.9398 5.49702 20.9398C5.93235 20.9398 6.01689 20.9474 6.04208 20.9456C6.73646 20.9113 7.60713 20.6813 8.18637 19.2674L10.3936 13.4717L15.2956 25.3187C15.7364 26.2631 16.4721 26.1962 16.9111 26.1962H16.9524C17.8087 26.1962 18.1811 25.895 18.5067 25.272L24.0437 13.5605L25.9326 18.8386L26.0477 19.0942C26.447 19.9736 26.7343 20.8422 27.7226 20.9557C27.9264 20.9791 30.2923 20.9376 33.4817 20.9376C33.4817 20.9376 33.4817 20.9581 33.4345 21.2739Z" fill="white"/>
<path d="M33.9759 16.8943C33.9759 16.9827 33.9759 17.2053 33.9741 17.2053H33.9705H28.8797L25.9096 8.8773C25.6452 8.25795 25.2476 7.32946 24.0891 7.32946C23.3803 7.32946 22.7399 7.91703 22.3766 8.88668L16.9924 21.405L11.8098 8.96262C11.3025 7.85754 10.9517 7.33781 9.93714 7.33781C9.24816 7.33781 8.74267 7.59257 8.1922 8.90169L5.11608 17.3289L0.00539082 17.3236C0.00179011 17.1954 0 17.0672 0 16.939C0 7.57104 7.56619 0 16.8989 0C26.2316 0 33.9759 7.52634 33.9759 16.8943Z" fill="white"/>
</svg>
