<svg width="199" height="25" viewBox="0 0 199 25" fill="none" xmlns="http://www.w3.org/2000/svg">
<path d="M85.9098 16.2648H99.0593L92.1063 5.45454L79.3452 25H73.5373L89.0591 1.52173C89.734 0.57311 90.8588 0 92.1063 0C93.3128 0 94.4376 0.553357 95.092 1.48221L110.675 25H104.867L102.127 20.6324H88.8137L85.9098 16.2648ZM146.238 20.6324V0.237154H141.31V22.6285C141.31 23.2411 141.555 23.834 142.025 24.2885C142.496 24.7431 143.13 25 143.825 25H166.3L169.204 20.6324H146.238ZM64.7028 16.9763C69.4883 16.9763 73.3738 13.2411 73.3738 8.6166C73.3738 3.9921 69.4883 0.237154 64.7028 0.237154H43.142V25H48.0685V4.60475H64.3756C66.6661 4.60475 68.5066 6.40315 68.5066 8.6166C68.5066 10.83 66.6661 12.6285 64.3756 12.6285L50.4817 12.6087L65.1936 25H72.3513L62.4533 16.9763H64.7028ZM12.8143 25C5.74044 25 0 19.4664 0 12.6285C0 5.79051 5.74044 0.237154 12.8143 0.237154H27.7081C34.7839 0.237154 40.5203 5.79051 40.5203 12.6285C40.5203 19.4664 34.7839 25 27.7081 25H12.8143ZM27.3768 20.6324C31.9598 20.6324 35.6716 17.0553 35.6716 12.6285C35.6716 8.20158 31.9598 4.60475 27.3768 4.60475H13.1435C8.56259 4.60475 4.84873 8.20158 4.84873 12.6285C4.84873 17.0553 8.56259 20.6324 13.1435 20.6324H27.3768ZM120.962 25C113.886 25 108.139 19.4664 108.139 12.6285C108.139 5.79051 113.886 0.237154 120.962 0.237154H138.651L135.768 4.60475H121.289C116.708 4.60475 112.986 8.20158 112.986 12.6285C112.986 17.0553 116.708 20.6324 121.289 20.6324H139.06L136.156 25H120.962ZM181.229 20.6324C177.445 20.6324 174.235 18.1818 173.253 14.8024H194.317L197.221 10.4348H173.253C174.235 7.0751 177.445 4.60475 181.229 4.60475H195.687L198.611 0.237154H180.902C173.826 0.237154 168.079 5.79051 168.079 12.6285C168.079 19.4664 173.826 25 180.902 25H196.096L199 20.6324H181.229Z" fill="white"/>
</svg>
