<svg width="172" height="26" viewBox="0 0 172 26" fill="none" xmlns="http://www.w3.org/2000/svg">
<path d="M163.302 11.4195V14.9588H165.822V18.4704C165.829 18.7394 165.817 19.0264 165.779 19.2735L165.758 19.3934C165.754 19.4202 165.749 19.4477 165.743 19.4758L165.723 19.5622C165.719 19.5769 165.715 19.5917 165.71 19.6066L165.681 19.6977C165.454 20.3443 164.772 21.1637 163.239 21.1637C161.606 21.1637 160.95 20.2231 160.771 19.5622L160.75 19.4758L160.734 19.3934C160.689 19.1226 160.67 18.7842 160.67 18.4704V7.37907C160.67 7.03034 160.691 6.6523 160.755 6.34433L160.798 6.15718C160.801 6.14422 160.804 6.13105 160.808 6.11768L160.832 6.03526C160.836 6.02117 160.841 6.00692 160.845 5.99252L160.877 5.90441C161.11 5.2916 161.726 4.47543 163.225 4.47543C164.383 4.47543 165.006 4.94086 165.339 5.42189L165.398 5.51216C165.417 5.54224 165.434 5.57227 165.451 5.60214L165.497 5.69116L165.538 5.77857L165.574 5.86372L165.604 5.94593L165.63 6.02456L165.652 6.09894L165.669 6.16841L165.683 6.23232C165.69 6.26411 165.696 6.29785 165.701 6.33293L165.716 6.44157C165.718 6.46014 165.72 6.47889 165.722 6.49774L165.737 6.6681L165.747 6.83148L165.756 7.05425L165.758 7.16842V8.51522H171.951L171.952 7.67684L171.956 7.37699L171.955 7.14457L171.949 6.87394L171.944 6.72824L171.933 6.50114L171.917 6.26851L171.904 6.11297C171.485 2.01581 168.365 0.439463 164.568 0.165164L164.314 0.148793L164.058 0.1362C163.929 0.130834 163.8 0.126855 163.671 0.124218L163.411 0.120718C163.367 0.120284 163.324 0.120284 163.28 0.120284L163.019 0.122041C162.975 0.122629 162.932 0.123366 162.889 0.124253L162.63 0.13139L162.374 0.142213L162.119 0.156798L161.866 0.175224C161.782 0.182016 161.699 0.18946 161.616 0.197571L161.367 0.223915C161.326 0.228643 161.285 0.233541 161.244 0.23861L161 0.271098C160.432 0.351765 159.887 0.466681 159.369 0.620322L159.15 0.688552C156.75 1.46545 155.006 3.11723 154.648 6.11297L154.612 6.44551L154.586 6.70298L154.563 6.97292L154.543 7.24147C154.532 7.41697 154.525 7.58231 154.525 7.71904L154.525 18.0528L154.527 18.1811L154.532 18.3761L154.538 18.5127L154.547 18.6587L154.558 18.8174L154.572 18.9923L154.6 19.2923L154.623 19.5224C154.97 23.3298 157.894 25.0234 161.472 25.4231L161.722 25.4488C162.142 25.4884 162.569 25.5106 163.002 25.517L163.263 25.5189L163.525 25.517C163.96 25.5106 164.389 25.4884 164.81 25.4488L165.062 25.4231C168.651 25.0234 171.556 23.3298 171.91 19.5224L171.938 19.1867L171.96 18.9026L171.979 18.5843L171.99 18.3102L172 17.922V11.4195H163.302ZM120.604 0.77312H114.385V18.7263C114.395 19.0391 114.385 19.3906 114.33 19.6483L114.312 19.7264L114.289 19.8096C114.281 19.8381 114.272 19.8673 114.262 19.8971L114.229 19.9881C113.995 20.6054 113.397 21.4108 111.967 21.4108C110.627 21.4108 110.014 20.6839 109.758 20.082L109.72 19.9881C109.715 19.9727 109.709 19.9574 109.704 19.9422L109.674 19.8529L109.65 19.7674C109.647 19.7536 109.643 19.7399 109.64 19.7264L109.623 19.6483C109.56 19.3906 109.553 19.0391 109.56 18.7263V0.77312H103.344V18.1691L103.343 18.3089L103.345 18.5535L103.353 18.9133L103.37 19.3506L103.382 19.5708L103.39 19.6876L103.398 19.7736C103.703 22.9921 105.616 24.6674 108.318 25.3683L108.548 25.4253C109.051 25.5437 109.579 25.6299 110.128 25.6875L110.383 25.7121L110.641 25.7327L110.901 25.7494C111.032 25.7567 111.164 25.7627 111.296 25.7672L111.563 25.7744L111.832 25.778C111.877 25.7784 111.922 25.7784 111.967 25.7784L112.238 25.7767C112.283 25.7761 112.328 25.7753 112.372 25.7744L112.64 25.7672C112.773 25.7627 112.905 25.7567 113.036 25.7494L113.296 25.7327L113.554 25.7121L113.81 25.6875C117.447 25.3063 120.175 23.672 120.551 19.7736L120.556 19.7348L120.566 19.6327L120.581 19.429L120.595 19.1825L120.602 19.0043L120.61 18.731L120.612 18.5535L120.611 18.3866L120.607 18.2362C120.606 18.2129 120.605 18.1904 120.604 18.1691V0.77312ZM63.465 0.77312L60.3629 19.7431L57.2627 0.77312H47.2315L46.6995 25.0412H52.8449L53.0113 2.57551L57.2397 25.0412H63.4748L67.7069 2.57551L67.8739 25.0412H74.0349L73.4849 0.77312H63.465ZM26.3248 0.77312L21.77 25.0412H28.4121L31.8444 2.57551L35.1944 25.0412H41.7904L37.2546 0.77312H26.3248ZM142.337 20.3118L136.546 0.77312H127.422V24.7881H133.458L133.107 4.62438L139.326 24.7881H148.077V0.77312H142.002L142.337 20.3118ZM86.503 7.08895C86.3937 6.60969 86.4253 6.10051 86.4818 5.83439C86.4978 5.76376 86.5167 5.69256 86.539 5.62146L86.5751 5.51498C86.8204 4.84221 87.3943 4.21025 88.7103 4.21025C90.1304 4.21025 90.963 5.08402 90.963 6.3953V7.87921H97.0252V6.18776C97.0252 2.37065 94.4939 0.902296 91.7892 0.387652L91.5666 0.347471L91.3435 0.311414L91.1201 0.279307L90.8969 0.250979L90.674 0.226258L90.4518 0.204972C90.3779 0.198429 90.3041 0.192431 90.2306 0.186947L90.0106 0.172013L89.7922 0.159997L89.5756 0.150728L89.3612 0.144032L89.1491 0.139737L88.8362 0.137423L88.6983 0.137902L88.4241 0.141765C88.3785 0.142734 88.3331 0.143866 88.2878 0.145164L88.0171 0.154936C87.9273 0.158861 87.8379 0.163455 87.7489 0.16873L87.4834 0.186609C83.7851 0.465817 80.8991 1.96511 80.3218 5.48102C80.151 6.55173 80.1087 7.50216 80.3805 8.71497C80.8084 10.7079 82.4907 12.1261 84.4216 13.3157L84.7205 13.4969C84.7706 13.5268 84.8209 13.5566 84.8712 13.5863L85.1745 13.7626L85.4796 13.9361L85.7859 14.1069L86.2454 14.3588L87.453 15.012L87.7464 15.1725L88.0348 15.3326L88.3174 15.4924L88.5932 15.6522C89.9093 16.4252 90.9638 17.2091 91.3432 18.1463C91.5532 18.7031 91.5073 19.405 91.4057 19.8528L91.3883 19.925C91.3633 20.0327 91.3317 20.1404 91.2921 20.2463L91.2496 20.3515C90.9703 20.9955 90.3598 21.5445 89.0184 21.5445C87.4884 21.5445 86.5674 20.6763 86.5674 19.3679L86.5655 17.0389H80.0405V18.8902C80.0405 23.2354 82.8338 25.1229 86.3321 25.6833L86.5925 25.7224C86.7669 25.7469 86.9429 25.7682 87.1202 25.7864L87.3872 25.8116C87.6998 25.8383 88.0162 25.856 88.3349 25.8653L88.6086 25.8712C88.6543 25.8719 88.7001 25.8724 88.7458 25.8727L88.8833 25.8732C88.9748 25.8732 89.0659 25.8725 89.1568 25.8712L89.4281 25.8654C89.4731 25.8641 89.5181 25.8626 89.5629 25.861L89.8309 25.8491C89.9198 25.8445 90.0083 25.8392 90.0964 25.8333L90.3594 25.8133C90.5338 25.7985 90.7064 25.781 90.8772 25.7607L91.1317 25.728L91.3833 25.691C91.4666 25.6779 91.5494 25.6641 91.6316 25.6495L91.8767 25.6036C94.8381 25.018 97.0414 23.4302 97.4839 20.3772C97.5449 19.9218 97.5823 19.5013 97.6025 19.1169L97.6135 18.866C97.6149 18.8251 97.6161 18.7846 97.6172 18.7446L97.6212 18.5099V18.2861L97.6174 18.0733L97.6104 17.8716L97.6005 17.681C97.5986 17.6502 97.5966 17.6198 97.5946 17.5899L97.5811 17.4162L97.5658 17.2539L97.549 17.103L97.522 16.8983L97.4941 16.7199L97.4576 16.5232L97.4407 16.4427C97.0137 14.3294 95.1391 12.8367 93.0565 11.608L92.7577 11.4343L92.4569 11.2639L92.1548 11.0966L91.7012 10.851L91.0996 10.5324L90.0737 9.99384L89.6515 9.76841C89.6053 9.74349 89.5594 9.71861 89.5138 9.69377L89.2437 9.54508L88.9812 9.39698C87.6891 8.65755 86.7124 7.93153 86.503 7.08895ZM6.53572 7.02944C6.42413 6.57078 6.44158 6.08829 6.49882 5.80793L6.52252 5.70295L6.54942 5.59908C6.75421 4.87036 7.31414 4.11925 8.76134 4.11925C10.1995 4.11925 11.0463 5.00144 11.0463 6.32331V7.8253H17.1795V6.12045C17.1795 2.47788 14.8835 0.948111 12.3179 0.349704L12.0941 0.299988C11.9072 0.260465 11.7192 0.225654 11.5308 0.195104L11.3047 0.16046L11.0785 0.129735L10.8526 0.102755L10.6272 0.0793474C10.5522 0.0721213 10.4774 0.065462 10.4027 0.0593406L10.1794 0.0425614L9.95755 0.0288373L9.73743 0.0179955L9.51936 0.00986354L9.30363 0.00426871L8.98507 0H8.88037C8.78842 0 8.69683 0.000634212 8.60561 0.00191291L8.33309 0.00769273C8.15218 0.0128486 7.97285 0.0206235 7.79525 0.0310996L7.53016 0.04885C7.48621 0.0521495 7.44236 0.0556203 7.39863 0.0592639L7.13767 0.0832075C7.05116 0.0918863 6.96513 0.101266 6.8796 0.111357L6.62455 0.143774C6.41329 0.172584 6.2053 0.205903 6.00087 0.243892L5.7573 0.291731L5.51727 0.344115L5.2809 0.401105C5.20274 0.420876 5.12521 0.441426 5.04832 0.462763L4.81965 0.529152C2.43943 1.25128 0.724111 2.76579 0.291108 5.39376C0.112402 6.48161 0.0817754 7.43859 0.340047 8.6648C0.794745 10.7838 2.64923 12.2595 4.72396 13.4994L5.02902 13.6792C5.08008 13.709 5.13123 13.7385 5.18247 13.768L5.4907 13.9433L5.95483 14.2014L6.57271 14.5378L7.48408 15.0307L7.92681 15.2739L8.35721 15.5163L8.63592 15.6779C8.68177 15.7048 8.7273 15.7318 8.7725 15.7588L9.0396 15.9209C10.1786 16.625 11.0707 17.3503 11.4151 18.2006C11.6406 18.7535 11.5879 19.4552 11.4813 19.9176L11.4631 19.9924C11.4368 20.0988 11.4045 20.2053 11.3645 20.3101L11.3219 20.4143C11.0354 21.0697 10.4205 21.6318 9.06161 21.6318C7.52555 21.6318 6.60676 20.7486 6.60676 19.4221L6.59824 17.0868H0V18.9425C0 24.1513 3.97918 25.8634 8.38597 25.992L8.66191 25.998L8.93878 26L9.21256 25.9981C9.34892 25.9962 9.48448 25.9928 9.61916 25.9879L9.88735 25.9763C10.0208 25.9694 10.1534 25.9611 10.285 25.9512L10.5469 25.9294L10.806 25.9034C10.8919 25.894 10.9773 25.884 11.0623 25.8732L11.3155 25.8388C11.3995 25.8266 11.4829 25.8137 11.5657 25.8L11.8127 25.7569C14.8794 25.1902 17.1648 23.5847 17.625 20.4445C17.6884 19.9959 17.728 19.5809 17.7501 19.2006L17.7624 18.9522L17.7698 18.7141C17.7716 18.6365 17.7726 18.5606 17.773 18.4865L17.7722 18.2694L17.7678 18.0629L17.7604 17.867L17.7503 17.6818L17.7379 17.5075L17.7236 17.344L17.6996 17.1193L17.6738 16.9195L17.6388 16.6923L17.5991 16.472C17.1736 14.3837 15.3549 12.8981 13.3087 11.6761L13.0078 11.4992C12.9574 11.47 12.907 11.4409 12.8564 11.412L12.5521 11.2402L12.2466 11.0716L11.9407 10.906L11.6352 10.743L10.2873 10.0369L9.85622 9.80885L9.5763 9.65821L9.30327 9.50838L9.03795 9.35913C8.99442 9.3343 8.95125 9.30947 8.90844 9.28465L8.65622 9.13583C7.54252 8.4663 6.72472 7.79642 6.53572 7.02944Z" fill="white"/>
</svg>
