<svg width="153" height="28" viewBox="0 0 153 28" fill="none" xmlns="http://www.w3.org/2000/svg">
<path d="M3.17208 22.1311C2.02446 22.1336 0.964272 21.515 0.39701 20.5119C-0.162075 19.515 -0.128549 18.2893 0.484185 17.3248L6.19899 8.30147C6.79447 7.31417 7.87221 6.72538 9.02007 6.76026C10.1671 6.78789 11.2104 7.43452 11.7503 8.45243C12.2831 9.4653 12.2165 10.6839 11.5784 11.6347L5.86724 20.658C5.27862 21.5803 4.26193 22.1359 3.17208 22.1311Z" fill="white"/>
<path d="M12.9746 22.1307C11.8219 22.1307 10.7613 21.511 10.2044 20.5152C9.64652 19.521 9.68006 18.2983 10.2915 17.3366L15.9954 8.33395C16.5823 7.33248 17.6633 6.72986 18.8189 6.75986C19.9813 6.78542 21.0346 7.43916 21.5674 8.46177C22.0965 9.48438 22.019 10.7103 21.3616 11.6586L15.6589 20.6613C15.0721 21.5795 14.0601 22.1335 12.9746 22.1307Z" fill="white"/>
<path d="M22.5577 22.2069C24.1826 22.2069 25.4998 20.9102 25.4998 19.3107C25.4998 17.7112 24.1826 16.4146 22.5577 16.4146C20.9328 16.4146 19.6155 17.7112 19.6155 19.3107C19.6155 20.9102 20.9328 22.2069 22.5577 22.2069Z" fill="white"/>
<path d="M150.373 16.5815C151.261 16.5815 151.793 17.217 151.793 18.2579V21.8248H153V18.1763C153 16.4062 152.171 15.38 150.611 15.38C150.001 15.38 149.032 15.548 148.455 16.6765C148.181 15.9983 147.56 15.526 146.836 15.4469C146.612 15.4058 146.385 15.3923 146.158 15.4068C145.662 15.4469 144.778 15.7574 144.447 16.461V15.5151H143.239V21.8248H144.447V18.4198C144.447 17.0953 145.309 16.5815 146.172 16.5815C146.981 16.5815 147.513 17.2036 147.513 18.2445V21.8248H148.714V18.4198C148.714 17.3655 149.343 16.5694 150.373 16.5815ZM138.804 20.7706C139.356 20.7828 139.889 20.5612 140.275 20.1595C140.662 19.7577 140.868 19.2111 140.848 18.6499C140.848 17.3789 139.918 16.5815 138.804 16.5815C137.689 16.5815 136.76 17.3789 136.76 18.6499C136.738 19.2099 136.944 19.7553 137.329 20.1558C137.714 20.5575 138.244 20.7803 138.794 20.7706H138.804ZM138.804 21.9539C137.038 21.9539 135.565 20.6428 135.565 18.6426C135.565 16.6424 137.038 15.3727 138.804 15.3727C140.569 15.3727 142.055 16.6424 142.055 18.6426C142.055 20.6428 140.561 21.96 138.795 21.96L138.804 21.9539ZM129.348 18.6426L129.336 18.6499C129.336 16.6497 130.848 15.38 132.625 15.3727C133.528 15.3551 134.396 15.7232 135.014 16.3855L134.099 17.1695C133.706 16.7818 133.176 16.5679 132.625 16.5755C131.511 16.5755 130.543 17.3728 130.543 18.6426C130.543 19.5008 131.05 20.2739 131.829 20.6026C132.607 20.9313 133.503 20.7487 134.099 20.1424L135.027 20.9264C134.408 21.5956 133.535 21.969 132.625 21.9539C130.861 21.9539 129.348 20.6428 129.348 18.6426ZM125.482 20.6135C125.479 20.3908 125.565 20.1761 125.72 20.0167C125.874 19.8573 126.086 19.7664 126.307 19.7638C126.529 19.7664 126.741 19.8573 126.895 20.0167C127.05 20.1761 127.136 20.3908 127.133 20.6135C127.111 21.057 126.749 21.4064 126.307 21.4109C125.866 21.4064 125.504 21.057 125.482 20.6135Z" fill="white"/>
<path d="M128.785 7.49426H124.486L121.472 15.3063L118.474 7.49426H114.175L119.402 19.8386L116.151 28H120.419L128.785 7.49426ZM102.637 14.3603C102.637 16.3325 104.352 17.6303 106.036 17.6303C107.691 17.6303 109.317 16.4226 109.317 14.3591C109.317 12.2957 107.691 11.0868 106.036 11.0868C104.352 11.0868 102.637 12.3857 102.637 14.3591V14.3603ZM109.317 21.2532V19.6913C108.445 21.0183 106.411 21.5198 105.368 21.5198C101.912 21.5198 98.4554 18.7807 98.4554 14.3591C98.4554 9.93878 101.911 7.19965 105.368 7.19965C106.238 7.19965 108.272 7.49183 109.317 9.02574V7.49913H113.325V21.2557L109.317 21.2544V21.2532ZM97.3149 21.2532H93.3073V19.544C92.6377 20.8101 91.0141 21.5478 89.3287 21.5478C85.8429 21.5478 82.764 18.749 82.764 14.4151C82.764 9.99965 85.8429 7.19722 89.3287 7.19722C91.0117 7.19722 92.6401 7.9033 93.3073 9.17061V0H97.3149V21.2532ZM93.2201 14.3287C93.2201 12.2664 91.7393 11.0576 90.0842 11.0576C88.3698 11.0576 86.9459 12.3541 86.9459 14.3287C86.9459 16.3666 88.3698 17.657 90.083 17.657C91.7696 17.6595 93.2201 16.3033 93.2201 14.3287ZM72.8551 13.9732C72.8551 11.8817 73.9302 11.1744 75.3529 11.1744C76.7174 11.1744 77.7054 12.0875 77.7054 13.9136V21.2508H81.7421V13.031C81.7421 9.11339 79.8242 7.19722 76.7743 7.19722C75.1773 7.19722 73.5803 8.11026 72.8539 9.49565V7.49426H68.8196V21.2508H72.8551V13.9732ZM60.6227 21.487C56.7895 21.487 53.5918 18.659 53.5918 14.3275C53.5918 9.99356 56.7858 7.19356 60.6227 7.19356C64.4596 7.19356 67.6815 9.99356 67.6815 14.3275C67.6815 18.6614 64.456 21.4882 60.6227 21.4882V21.487ZM60.6227 17.4817C62.3057 17.4817 63.7017 16.2424 63.7017 14.3287C63.7017 12.4722 62.3069 11.2049 60.6227 11.2049C59.8032 11.192 59.0144 11.5181 58.4409 12.107C57.8643 12.6988 57.5511 13.5005 57.5728 14.3287C57.574 16.2449 58.9676 17.4817 60.6227 17.4817ZM46.3551 11.1757C47.5453 11.1757 48.5914 12.1191 48.5914 13.9148V21.2532H52.599V13.44C52.599 9.28626 50.5903 7.19478 47.3709 7.19478C46.4144 7.19478 44.6128 7.48696 43.3052 9.6393C42.5497 8.04817 41.098 7.22278 38.9525 7.22278C37.4311 7.215 36.0458 8.10237 35.4098 9.492V7.49548H31.3707V21.252H35.4062V13.9732C35.4062 11.8817 36.5394 11.1744 37.7587 11.1744C38.921 11.1744 39.9647 12.0875 39.995 13.8259V21.252H44.0316V13.9732C44.0316 11.973 45.0777 11.1769 46.3551 11.1769V11.1757Z" fill="white"/>
</svg>
