<svg width="166" height="34" viewBox="0 0 166 34" fill="none" xmlns="http://www.w3.org/2000/svg">
<path d="M29.9526 18.2117L29.9746 18.2134L32.2691 18.4534C32.4301 18.4707 32.5781 18.5494 32.6826 18.6724L32.6996 18.6933L32.6778 18.7041C32.785 18.8396 32.8323 19.0129 32.8086 19.184C32.3073 23.1717 30.4183 26.8554 27.4732 29.5884C24.4173 32.4243 20.4033 34 16.2353 34C14.211 34.0032 12.2039 33.6303 10.3161 32.9004L10.2132 32.8603C10.0587 32.8031 9.93455 32.6856 9.86882 32.5353L9.85894 32.5113C9.79458 32.3617 9.791 32.1933 9.84821 32.0416L10.7539 29.8308C10.8766 29.5182 11.2244 29.3608 11.5385 29.4716L11.5594 29.4794C16.1886 31.2678 21.4316 30.2605 25.0697 26.8837C27.3854 24.7547 28.8786 21.8785 29.2879 18.7587C29.3313 18.4365 29.6106 18.2021 29.9307 18.2107L29.9526 18.2117ZM84.1415 8.82872C86.098 8.82872 87.628 9.42597 88.6051 10.573L88.6378 10.6119V9.64121C88.6509 9.37029 88.8606 9.15132 89.1282 9.12487L89.15 9.12315H91.7606C92.0291 9.14173 92.2428 9.35326 92.266 9.61951L92.2675 9.64121V24.1409C92.3519 26.1855 91.7238 28.1959 90.4908 29.8284C89.0846 31.5407 86.9483 32.4077 84.1415 32.4077C80.2395 32.4077 77.1602 29.9375 76.6533 26.4093C76.6282 26.1546 76.7832 25.9178 77.0243 25.8379L77.0457 25.8313L79.5963 25.2315C79.6096 25.2285 79.623 25.2259 79.6364 25.224C79.9164 25.1829 80.1765 25.3767 80.2176 25.6568C80.4505 27.6359 82.1506 29.1124 84.1415 29.0649C87.1576 29.0649 88.5766 27.5311 88.6047 24.3257L88.6051 24.2281V22.9576C87.4745 24.2263 85.8395 24.9274 84.1415 24.8716C79.8034 24.8716 76.6589 21.5016 76.6589 16.8665C76.6191 14.781 77.353 12.7547 78.7189 11.1789C80.1062 9.65393 82.0808 8.79814 84.1415 8.82872ZM5.57593 26.4638L5.60827 26.4635L5.64074 26.4638C6.68206 26.4757 7.52048 27.3182 7.5318 28.3563L7.53189 28.3888C7.53189 28.3996 7.53176 28.4104 7.53157 28.4212C7.51344 29.4841 6.63766 30.3312 5.57531 30.3132C4.51295 30.295 3.66643 29.4188 3.68438 28.3558C3.70214 27.3145 4.5429 26.4804 5.57593 26.4638ZM129.33 8.62697L129.464 8.62796C134.127 8.6924 137.017 11.9404 137.017 17.1391C137.017 17.4142 137.002 17.6891 136.973 17.9625C136.949 18.214 136.744 18.408 136.493 18.42L136.472 18.4205H125.386C125.455 20.7501 127.379 22.5933 129.709 22.5594C131.514 22.673 133.159 21.5243 133.676 19.7893C133.771 19.5403 134.039 19.4063 134.293 19.4777L134.313 19.484L136.526 20.2637C136.648 20.3031 136.748 20.3898 136.805 20.5038L136.815 20.5255C136.876 20.6456 136.886 20.7852 136.843 20.9126C135.815 23.9573 132.919 25.9718 129.709 25.8749C127.604 25.8959 125.578 25.0731 124.084 23.5901C122.453 21.8733 121.583 19.5714 121.67 17.2046C121.67 11.8871 125.489 8.69132 129.219 8.62794L129.33 8.62697ZM66.6036 8.62698H66.6091C71.356 8.62698 74.3045 11.8879 74.3045 17.1391C74.3041 17.4142 74.2895 17.6891 74.2608 17.9625C74.2388 18.2154 74.0319 18.4108 73.7805 18.4202L73.7594 18.4205H62.6743C62.7426 20.7565 64.6772 22.6023 67.0124 22.5595C68.8188 22.675 70.465 21.5256 70.98 19.7893C71.0723 19.5383 71.3427 19.4034 71.597 19.4775L71.6176 19.484L73.8303 20.2637C73.9596 20.3055 74.0648 20.4008 74.1191 20.5255C74.1709 20.6494 74.1709 20.7888 74.1191 20.9126C73.0922 23.9553 70.1989 25.9694 66.9906 25.8749C64.8823 25.8988 62.8524 25.0758 61.3553 23.5901C59.7268 21.872 58.8568 19.5711 58.941 17.2046C58.941 11.8334 62.8378 8.62698 66.6036 8.62698ZM49.8179 8.62146C51.9487 8.62146 53.671 9.13952 54.9462 10.1592C55.8086 10.8468 56.4477 11.7747 56.7829 12.8258L56.7839 12.83C56.8277 13.0112 56.7212 13.1937 56.5446 13.2463L56.5267 13.2511L53.8835 14.1236C53.7662 14.1701 53.6356 14.1701 53.5184 14.1236C53.4183 14.0768 53.3429 13.9895 53.3113 13.8837L53.2972 13.8317C53.0564 12.9705 52.2694 11.5879 49.8179 11.5879C48.0739 11.5879 47.0275 12.5913 47.0275 13.562L47.0279 13.6004C47.041 14.2316 47.384 15.0238 48.8881 15.325L48.935 15.3342L51.8453 15.8794C55.0609 16.5273 56.9145 18.276 56.9512 20.7132L56.9518 20.7872L56.9409 20.7437L56.9402 20.8176C56.8934 23.2606 54.5318 25.8313 50.183 25.8313C45.0873 25.8313 43.0872 22.9466 42.7166 21.2453C42.6924 21.0673 42.8009 20.8992 42.9707 20.8469L42.9891 20.8417L45.7141 19.9911C45.7628 19.9831 45.8125 19.9831 45.8612 19.9911C45.9305 19.9898 45.999 20.0046 46.0615 20.0339L46.0846 20.0456C46.1847 20.0936 46.2586 20.1835 46.2863 20.2909C46.6297 21.927 48.1066 22.903 50.2321 22.903C52.2104 22.903 53.1096 21.8669 53.1096 20.929C53.1096 20.0014 52.326 19.3138 50.9749 19.0298L50.9297 19.0204L47.8723 18.4261C45.0219 17.8862 43.2453 16.1139 43.2453 13.8073C43.2453 10.999 46.2591 8.62146 49.8179 8.62146ZM159.732 4.07911H162.114C162.395 4.09599 162.615 4.32403 162.626 4.60335L162.626 4.62439V9.10136H165.492C165.771 9.12097 165.989 9.348 166 9.62522L166 9.64664V12.0242L166 12.0449C165.992 12.3114 165.78 12.5279 165.514 12.5416L165.492 12.5422H162.626V20.4982C162.626 21.8178 163.149 22.3632 164.495 22.3632C164.768 22.3584 165.04 22.3377 165.31 22.3012L165.411 22.2868C165.56 22.2616 165.711 22.3036 165.825 22.4013C165.928 22.4969 165.99 22.6282 165.999 22.7677L166 22.794V25.0351C166.002 25.2635 165.853 25.4658 165.634 25.5314C165.007 25.7072 164.359 25.7955 163.707 25.7939L163.618 25.7931C160.774 25.7931 159 23.9813 158.965 21.0509L158.964 20.9617V12.575H156.484C156.214 12.559 155.997 12.3468 155.973 12.0787L155.972 12.0569V9.66843C155.971 9.38666 156.185 9.15215 156.463 9.12481L156.484 9.12315L157.151 9.12307L157.222 9.1218C158 9.09944 159.195 8.78385 159.22 7.04573L159.22 6.99096V4.62439C159.219 4.34261 159.434 4.10811 159.711 4.08077L159.732 4.07911ZM113.443 8.62455L113.506 8.62698H113.5C116.306 8.62698 119.138 10.583 119.195 14.855L119.196 14.9851V25.0842C119.183 25.3552 118.972 25.574 118.705 25.6006L118.683 25.6023H116.073C115.802 25.5863 115.586 25.3741 115.562 25.1061L115.56 25.0842V15.3124L115.56 15.2371C115.544 13.992 115.121 11.9914 112.558 11.9914C110.664 11.9914 109.314 13.4665 109.288 15.6125L109.287 15.6777V25.0842C109.274 25.3552 109.065 25.574 108.797 25.6006L108.775 25.6023H106.132C105.861 25.5863 105.645 25.3741 105.622 25.1061L105.62 25.0842V15.3124L105.62 15.2371C105.604 13.992 105.181 11.9914 102.617 11.9914C100.647 11.9914 99.3139 13.4558 99.2875 15.6439L99.2871 15.7104V25.0842C99.2734 25.3552 99.0639 25.574 98.7966 25.6006L98.7748 25.6023H96.164C95.8955 25.5837 95.682 25.3721 95.6588 25.1059L95.6574 25.0842V9.60848C95.6701 9.33946 95.8769 9.12126 96.1424 9.09235L96.164 9.09042H98.6767C98.947 9.10636 99.1641 9.31861 99.1874 9.58663L99.1889 9.60848V10.541C100.319 9.30114 101.926 8.60453 103.603 8.62698C105.545 8.57002 107.358 9.59754 108.307 11.2934C109.436 9.56598 111.385 8.55538 113.443 8.62455ZM152.533 10.5518C153.533 11.8702 154.049 13.4916 153.996 15.1443L153.993 15.2142V25.0842C153.98 25.3533 153.773 25.5715 153.508 25.6004L153.486 25.6023H150.844C150.573 25.5863 150.356 25.3741 150.332 25.1061L150.331 25.0842V15.7432C150.331 13.3002 149.181 12.0569 147.001 12.0569C146.038 12.0257 145.117 12.455 144.521 13.2129C143.944 14.0449 143.646 15.0379 143.67 16.049L143.671 16.1085V25.0842C143.658 25.3552 143.448 25.574 143.181 25.6006L143.159 25.6023H140.521C140.251 25.5863 140.034 25.3741 140.01 25.1061L140.009 25.0842V9.59754C140.022 9.32661 140.232 9.10773 140.499 9.0812L140.521 9.07948H143.099C143.368 9.09805 143.581 9.30967 143.604 9.57584L143.606 9.59754V10.6882C144.712 9.34772 146.371 8.58817 148.108 8.62698C149.8 8.55459 151.432 9.26438 152.533 10.5518ZM0.632202 18.8732H19.3964C19.7412 18.8762 20.0197 19.1524 20.0284 19.4948L20.0286 19.5167V21.867C20.0315 22.212 19.7601 22.4954 19.4182 22.5098L19.3963 22.5104H0.632202C0.287322 22.5075 0.00885199 22.2311 0 21.8889V21.8669V19.5166V19.4947C0.00866731 19.1599 0.27543 18.8882 0.609812 18.8738L0.632202 18.8732ZM84.5939 12.0896C82.0216 12.0896 80.3866 13.9219 80.3866 16.8665C80.3866 19.8111 81.9997 21.6379 84.5939 21.6379C87.0682 21.6379 88.7359 19.7185 88.7359 16.8665C88.7359 14.009 87.0682 12.0896 84.5939 12.0896ZM62.7903 15.2757L62.7833 15.3342H70.5385C70.3497 13.2612 68.8896 11.9684 66.7028 11.9428L66.6364 11.9424C64.7095 11.9111 63.0686 13.3212 62.798 15.218L62.7903 15.2757ZM125.524 15.2757L125.517 15.3342H133.273C133.084 13.2612 131.624 11.9684 129.437 11.9428L129.37 11.9424C127.444 11.9111 125.803 13.3212 125.532 15.218L125.524 15.2757ZM21.7453 0.93811C21.9077 0.996753 22.0394 1.11872 22.1104 1.27622C22.1755 1.43522 22.1755 1.61349 22.1104 1.77239L21.2929 3.95369C21.1796 4.27711 20.8262 4.4478 20.5027 4.33538C16.22 2.84003 11.4678 3.68965 7.96782 6.57653C5.78656 8.40335 4.23776 10.873 3.54248 13.6328C3.47051 13.9115 3.21971 14.1064 2.93209 14.1072H2.79038L0.544989 13.5674C0.377573 13.528 0.233807 13.4215 0.147155 13.2729H0.136218C0.0453594 13.1243 0.0197469 12.9449 0.0654567 12.7767C0.957124 9.2439 2.95228 6.08803 5.76058 3.76822C10.2261 0.0897982 16.2893 -0.983733 21.7453 0.93811ZM13.4341 10.361H32.1982C32.5345 10.3638 32.8094 10.627 32.8295 10.9603L32.8304 10.9826V13.3329C32.8333 13.678 32.5621 13.9614 32.2201 13.9758L32.1982 13.9764H13.4341C13.0915 13.9705 12.8162 13.6953 12.8075 13.3552L12.8073 13.3329V11.0044C12.8043 10.6616 13.0723 10.3792 13.4119 10.3618L13.4341 10.361ZM26.4601 3.19018L26.4924 3.18992L26.5249 3.19021C27.5662 3.20215 28.4046 4.04463 28.4159 5.08264L28.416 5.11514C28.416 5.12599 28.4159 5.13684 28.4157 5.14759C28.3977 6.21055 27.5218 7.05756 26.4594 7.0395C25.3971 7.02145 24.5506 6.14508 24.5686 5.08221C24.5863 4.04085 25.4271 3.20682 26.4601 3.19018Z" fill="white"/>
</svg>
