<svg width="147" height="34" viewBox="0 0 147 34" fill="none" xmlns="http://www.w3.org/2000/svg">
<path d="M0.320711 25.7364C0.144421 25.6358 0 25.3895 0 25.1895V8.8098C0 8.60943 0.144421 8.36343 0.320711 8.2627L14.877 0.0754093C15.0535 -0.0251364 15.3422 -0.0251364 15.5186 0.0754093L30.074 8.26361C30.2505 8.36416 30.3947 8.61016 30.3947 8.81052V25.1902C30.3947 25.39 30.2505 25.6362 30.074 25.7371L15.5186 33.9246C15.3422 34.0251 15.0535 34.0251 14.877 33.9246L0.320711 25.7364ZM44.0674 10.44V17.0836H46.9457C49.0346 17.0836 49.9631 16.2436 49.9631 14.8691V12.6545C49.9631 11.2802 49.0346 10.44 46.9457 10.44H44.0674ZM44.0674 19.1964V25.1273C44.0674 25.4835 43.9746 25.6362 43.6496 25.6362H42.2336C41.9318 25.6362 41.8158 25.4835 41.8158 25.1273V8.83652C41.8158 8.48016 41.9318 8.32725 42.2336 8.32725H46.9457C50.9381 8.32725 52.2147 10.16 52.2147 12.2473V15.2765C52.2147 17.3636 50.9381 19.1964 46.9457 19.1964H44.0674ZM57.4529 10.44V16.6764H60.331C62.4201 16.6764 63.3487 15.8618 63.3487 14.4618V12.6545C63.3487 11.2802 62.4201 10.44 60.331 10.44H57.4529ZM57.4529 18.7891V25.1273C57.4529 25.4835 57.3598 25.6362 57.0349 25.6362H55.6191C55.3173 25.6362 55.2013 25.4835 55.2013 25.1273V8.83652C55.2013 8.48016 55.3173 8.32725 55.6191 8.32725H60.331C64.3236 8.32725 65.6001 10.16 65.6001 12.2473V14.8945C65.6001 16.4473 64.8806 17.8473 62.8843 18.4584L65.6698 25.1273C65.7858 25.4327 65.5769 25.6362 65.252 25.6362H63.8592C63.5342 25.6362 63.4878 25.4327 63.3487 25.1273L60.7256 18.7891H57.4529ZM77.8024 12.4509C77.8024 11.0763 76.8226 10.2363 74.6176 10.2363C72.4371 10.2363 71.4573 11.0763 71.4573 12.4509V21.5126C71.4573 22.8873 72.4371 23.7271 74.6176 23.7271C76.8226 23.7271 77.8024 22.8873 77.8024 21.5126V12.4509ZM69.0563 12.0436C69.0563 9.95634 70.4283 8.12379 74.6176 8.12379C78.8314 8.12379 80.2036 9.95634 80.2036 12.0436V21.92C80.2036 24.0073 78.8314 25.84 74.6176 25.84C70.4283 25.84 69.0563 24.0073 69.0563 21.92V12.0436ZM93.1392 8.32725C93.4577 8.32725 93.6047 8.4547 93.6047 8.81089V9.95634C93.6047 10.3127 93.4577 10.44 93.1392 10.44H89.2194V25.1273C89.2194 25.4835 89.0969 25.6362 88.7782 25.6362H87.2594C86.9409 25.6362 86.8184 25.4835 86.8184 25.1273V10.44H82.8984C82.5556 10.44 82.4331 10.3127 82.4331 9.95634V8.81089C82.4331 8.4547 82.5556 8.32725 82.8984 8.32725H93.1392ZM104.557 12.4509C104.557 11.0763 103.577 10.2363 101.372 10.2363C99.1913 10.2363 98.2113 11.0763 98.2113 12.4509V21.5126C98.2113 22.8873 99.1913 23.7271 101.372 23.7271C103.577 23.7271 104.557 22.8873 104.557 21.5126V12.4509ZM95.8103 12.0436C95.8103 9.95634 97.1823 8.12379 101.372 8.12379C105.586 8.12379 106.958 9.95634 106.958 12.0436V21.92C106.958 24.0073 105.586 25.84 101.372 25.84C97.1823 25.84 95.8103 24.0073 95.8103 21.92V12.0436ZM121.139 25.1526C121.139 25.4835 121.046 25.6362 120.721 25.6362H119.444C119.212 25.6362 119.119 25.5598 119.027 25.4071L113.572 14.9202C113.061 13.9782 112.783 13.1891 112.736 13.0873V25.1526C112.736 25.4835 112.62 25.6362 112.318 25.6362H111.018C110.717 25.6362 110.601 25.4835 110.601 25.1526V8.81089C110.601 8.48016 110.717 8.32725 111.018 8.32725H112.318C112.504 8.32725 112.62 8.40361 112.689 8.53089L118.284 19.2473C118.609 19.8582 119.003 20.8762 119.003 20.8762V8.81089C119.003 8.48016 119.142 8.32725 119.444 8.32725H120.721C121.046 8.32725 121.139 8.48016 121.139 8.81089V25.1526ZM125.13 25.6362C124.829 25.6362 124.713 25.4835 124.713 25.1273V8.83652C124.713 8.48016 124.829 8.32725 125.13 8.32725H133.069C133.37 8.32725 133.51 8.4547 133.51 8.81089V9.95634C133.51 10.3127 133.37 10.44 133.069 10.44H126.964V15.5818H132.651C132.976 15.5818 133.115 15.7091 133.115 16.0655V17.16C133.115 17.4909 132.976 17.6436 132.651 17.6436H126.964V23.5237H133.324C133.626 23.5237 133.765 23.6255 133.765 23.9817V25.1526C133.765 25.5091 133.626 25.6362 133.324 25.6362H125.13ZM146.559 8.32725C146.861 8.32725 147 8.4547 147 8.81089V9.95634C147 10.3127 146.861 10.44 146.559 10.44H142.845V25.1273C142.845 25.4835 142.729 25.6362 142.427 25.6362H140.988C140.686 25.6362 140.57 25.4835 140.57 25.1273V10.44H136.856C136.531 10.44 136.415 10.3127 136.415 9.95634V8.81089C136.415 8.4547 136.531 8.32725 136.856 8.32725H146.559Z" fill="white"/>
</svg>
