<svg width="227" height="34" viewBox="0 0 227 34" fill="none" xmlns="http://www.w3.org/2000/svg">
<path d="M31.8979 33.9997V25.1494H21.8756C19.1501 25.1494 16.6255 26.5253 15.2295 28.7716L11.9803 33.9997H31.8979Z" fill="white"/>
<path d="M0 0V8.8503H26.3978L31.8982 0H0Z" fill="white"/>
<path d="M12.6337 13.832L0.0290527 34.0001H10.7679L25.8409 9.87183H19.9108C16.928 9.87183 14.1647 11.3756 12.6337 13.832Z" fill="white"/>
<path d="M54.746 25.5057C49.3461 25.5057 45.3725 21.731 45.3725 16.6658C45.3725 11.6492 49.3715 7.82584 54.7715 7.82584C60.1715 7.82584 64.1705 11.6979 64.1705 16.6658C64.1705 21.6823 60.146 25.5057 54.746 25.5057ZM54.7715 22.4129C58.1847 22.4129 60.63 19.9777 60.63 16.6658C60.63 13.4025 58.1847 10.9186 54.7715 10.9186C51.3328 10.9186 48.8876 13.4025 48.8876 16.6658C48.8876 19.9777 51.3328 22.4129 54.7715 22.4129ZM67.7865 30.7901V12.3797H71.0469V14.0113H71.2252C71.5818 13.4756 72.8044 12.0632 75.2497 12.0632C78.994 12.0632 81.5667 14.7419 81.5667 18.7357C81.5667 22.7295 79.0195 25.5057 75.3516 25.5057C72.9828 25.5057 71.7092 24.2393 71.2762 23.5331H71.0979V30.7901H67.7865ZM74.6129 22.6321C76.7525 22.6321 78.2044 21.0492 78.2044 18.7844C78.2044 16.4466 76.7525 14.9367 74.5875 14.9367C72.3969 14.9367 71.0214 16.617 71.0214 18.7844C71.0214 21.1709 72.5497 22.6321 74.6129 22.6321ZM91.0412 25.5057C87.0931 25.5057 84.2912 22.6808 84.2912 18.8575C84.2912 14.815 87.1185 12.0632 91.0412 12.0632C95.3459 12.0632 97.6892 15.1072 97.6892 18.7114V19.7098H87.5006C87.6025 21.658 89.0034 22.973 91.143 22.973C92.7732 22.973 94.0213 22.2424 94.4798 21.1953H97.5619C96.8996 23.801 94.5053 25.5057 91.0412 25.5057ZM87.5516 17.4694H94.5308C94.3779 15.7404 92.977 14.5958 91.0412 14.5958C89.1817 14.5958 87.7553 15.8621 87.5516 17.4694ZM101.254 25.1891V12.3797H104.413V13.9383H104.591C105.126 12.9885 106.451 12.0632 108.361 12.0632C111.367 12.0632 113.201 14.0844 113.201 16.8119V25.1891H109.889V17.6398C109.889 16.0813 108.845 15.0341 107.317 15.0341C105.712 15.0341 104.566 16.2518 104.566 17.859V25.1891H101.254ZM116.485 25.1891V22.2911L125.757 11.1134V10.9429H116.817V8.14242H129.985V11.016L120.714 22.1937V22.3886H130.036V25.1891H116.485ZM139.001 25.5057C135.053 25.5057 132.251 22.6808 132.251 18.8575C132.251 14.815 135.079 12.0632 139.001 12.0632C143.306 12.0632 145.649 15.1072 145.649 18.7114V19.7098H135.461C135.563 21.658 136.964 22.973 139.103 22.973C140.733 22.973 141.981 22.2424 142.44 21.1953H145.522C144.86 23.801 142.465 25.5057 139.001 25.5057ZM135.512 17.4694H142.491C142.338 15.7404 140.937 14.5958 139.001 14.5958C137.142 14.5958 135.715 15.8621 135.512 17.4694ZM149.214 30.7901V12.3797H152.475V14.0113H152.653C153.01 13.4756 154.232 12.0632 156.678 12.0632C160.422 12.0632 162.995 14.7419 162.995 18.7357C162.995 22.7295 160.447 25.5057 156.78 25.5057C154.411 25.5057 153.137 24.2393 152.704 23.5331H152.526V30.7901H149.214ZM156.041 22.6321C158.18 22.6321 159.632 21.0492 159.632 18.7844C159.632 16.4466 158.18 14.9367 156.015 14.9367C153.825 14.9367 152.449 16.617 152.449 18.7844C152.449 21.1709 153.978 22.6321 156.041 22.6321ZM166.56 30.7901V12.3797H169.82V14.0113H169.998C170.355 13.4756 171.578 12.0632 174.023 12.0632C177.767 12.0632 180.34 14.7419 180.34 18.7357C180.34 22.7295 177.793 25.5057 174.125 25.5057C171.756 25.5057 170.482 24.2393 170.049 23.5331H169.871V30.7901H166.56ZM173.386 22.6321C175.526 22.6321 176.978 21.0492 176.978 18.7844C176.978 16.4466 175.526 14.9367 173.361 14.9367C171.17 14.9367 169.795 16.617 169.795 18.7844C169.795 21.1709 171.323 22.6321 173.386 22.6321ZM189.814 25.5057C185.866 25.5057 183.064 22.6808 183.064 18.8575C183.064 14.815 185.892 12.0632 189.814 12.0632C194.119 12.0632 196.462 15.1072 196.462 18.7114V19.7098H186.274C186.376 21.658 187.777 22.973 189.916 22.973C191.546 22.973 192.794 22.2424 193.253 21.1953H196.335C195.673 23.801 193.278 25.5057 189.814 25.5057ZM186.325 17.4694H193.304C193.151 15.7404 191.75 14.5958 189.814 14.5958C187.955 14.5958 186.528 15.8621 186.325 17.4694ZM203.288 25.1891C200.944 25.1891 199.62 23.8497 199.62 21.5849V6.9248H202.931V21.2927C202.931 22.0233 203.313 22.4129 204.001 22.4129H204.536V25.1891H203.288ZM209.375 10.6751C208.177 10.6751 207.337 9.96885 207.337 8.82429C207.337 7.72843 208.177 6.99786 209.375 6.99786C210.572 6.99786 211.412 7.72843 211.412 8.82429C211.412 9.96885 210.572 10.6751 209.375 10.6751ZM207.719 25.1891V12.3797H211.03V25.1891H207.719ZM215.054 25.1891V12.3797H218.212V13.9383H218.391C218.925 12.9885 220.25 12.0632 222.16 12.0632C225.166 12.0632 227 14.0844 227 16.8119V25.1891H223.689V17.6398C223.689 16.0813 222.644 15.0341 221.116 15.0341C219.511 15.0341 218.365 16.2518 218.365 17.859V25.1891H215.054Z" fill="white"/>
</svg>
