<svg width="62" height="53" viewBox="0 0 62 53" fill="none" xmlns="http://www.w3.org/2000/svg">
<g opacity="0.8">
<path d="M49.5155 2.58184C50.4127 1.58082 51.7547 1.17198 53.086 0.964509C54.2048 0.789984 55.3633 1.06721 56.0973 1.31025C56.8504 1.48582 57.9834 1.85302 58.8461 2.58444C59.8716 3.4541 60.801 4.50227 61.0396 5.82296C61.2781 7.14365 60.9649 8.54475 60.2331 9.67152C59.6479 10.5737 59.3967 9.5907 59.1475 9.06182C58.6541 8.01535 57.8738 7.0866 56.8976 6.45356C56.454 6.16536 55.9799 5.95961 55.4805 5.78878C55.4404 5.77486 55.1205 5.65853 54.8871 5.57255C54.6436 5.52407 54.3109 5.45772 54.2683 5.44755C53.7536 5.3342 53.2401 5.26215 52.7111 5.27635C51.5476 5.30809 50.3941 5.69264 49.423 6.3281C48.9331 6.64893 48.2029 7.35538 48.1782 6.28196C48.1508 4.94083 48.6184 3.58411 49.5155 2.58184Z" fill="url(#paint0_linear_35_1754)"/>
<path d="M50.2391 5.81077C50.1706 7.60187 50.3985 9.39038 50.6466 11.1665C52.2257 22.47 54.7628 33.9036 60.764 43.6282C60.764 43.6282 55.8649 47.6722 52.8084 52.4965C49.8397 40.5783 47.9628 30.2719 45.9561 19.4007C45.3213 15.9606 44.6566 12.4266 45.3183 8.99153C45.9389 5.76773 48.1932 2.10871 51.6583 1.40917C50.232 2.15169 50.2936 4.40365 50.2391 5.81077Z" fill="url(#paint1_linear_35_1754)"/>
<path d="M58.7295 8.19707C57.8465 9.75982 56.7141 11.1652 55.5693 12.5506C46.5381 23.4788 35.6486 32.8498 20.7546 33.7362C11.6759 34.2762 2.95804 31.2149 1.07194 30.0379C2.40037 32.7952 5.08067 36.167 6.55471 37.9866C9.244 41.3071 16.9383 42.3642 22.3922 41.9213C28.9571 41.389 35.8617 39.1004 41.3606 35.4966C46.4388 32.1688 58.6041 21.0114 61.2528 13.4709C62.3415 10.3728 62.4185 6.10734 59.8311 3.70667C60.6574 5.08344 59.4227 6.97133 58.7295 8.19707Z" fill="url(#paint2_linear_35_1754)"/>
</g>
<defs>
<linearGradient id="paint0_linear_35_1754" x1="57.2948" y1="1.57334" x2="54.2519" y2="7.43933" gradientUnits="userSpaceOnUse">
<stop stop-color="#A72517"/>
<stop offset="1" stop-color="#D8313E"/>
</linearGradient>
<linearGradient id="paint1_linear_35_1754" x1="53.007" y1="1.41443" x2="52.8079" y2="52.4965" gradientUnits="userSpaceOnUse">
<stop stop-color="#9A2014"/>
<stop offset="1" stop-color="#CE3226"/>
</linearGradient>
<linearGradient id="paint2_linear_35_1754" x1="59.4023" y1="10.993" x2="13.7831" y2="41.0447" gradientUnits="userSpaceOnUse">
<stop stop-color="#AF271D"/>
<stop offset="1" stop-color="#E82E1C"/>
</linearGradient>
</defs>
</svg>
