<svg width="75" height="64" viewBox="0 0 75 64" fill="none" xmlns="http://www.w3.org/2000/svg">
<g opacity="0.8">
<path d="M16.1853 3.01653C15.1181 1.80581 13.5116 1.3022 11.9162 1.04055C10.5753 0.820455 9.18265 1.14258 8.29965 1.42763C7.39435 1.63146 6.03139 2.06189 4.98932 2.93231C3.75064 3.96725 2.62568 5.2175 2.32705 6.80154C2.02841 8.38557 2.39118 10.0714 3.25872 11.4315C3.95245 12.5206 4.26307 11.3423 4.56704 10.7094C5.1689 9.45712 6.11391 8.34891 7.29118 7.59771C7.82618 7.25571 8.39696 7.01302 8.99773 6.81252C9.04604 6.79618 9.43098 6.65944 9.71178 6.55836C10.0045 6.50241 10.4042 6.42583 10.4555 6.41401C11.0741 6.28269 11.691 6.20096 12.3256 6.22296C13.7214 6.27198 15.1019 6.74466 16.2612 7.51698C16.8461 7.90692 17.7156 8.76226 17.7553 7.47322C17.8008 5.86266 17.2524 4.22874 16.1853 3.01653Z" fill="url(#paint0_linear_35_1749)"/>
<path d="M15.2867 6.88827C15.3522 9.04019 15.0619 11.1862 14.7475 13.3171C12.747 26.8789 9.59556 40.588 2.30363 52.2119C2.30363 52.2119 8.1442 57.115 11.7666 62.938C15.4404 48.651 17.7891 36.2896 20.2986 23.2511C21.0926 19.1252 21.9232 14.8867 21.1614 10.7547C20.4469 6.87684 17.7763 2.46093 13.625 1.58829C15.3294 2.49346 15.2345 5.19769 15.2867 6.88827Z" fill="url(#paint1_linear_35_1749)"/>
<path d="M5.07767 9.67476C6.12253 11.56 7.4681 13.2587 8.82884 14.9333C19.5632 28.1436 32.5419 39.5009 50.4052 40.705C61.2937 41.4386 71.7831 37.8433 74.0573 36.4473C72.4375 39.7466 69.1898 43.7713 67.404 45.943C64.146 49.9061 54.9036 51.1037 48.3635 50.5207C40.4912 49.8199 32.2277 47.0065 25.6632 42.6265C19.6009 38.582 5.10809 25.0671 2.00045 15.9855C0.723105 12.2542 0.670729 7.13028 3.79781 4.27109C2.79345 5.91698 4.25735 8.19605 5.07767 9.67476Z" fill="url(#paint2_linear_35_1749)"/>
</g>
<defs>
<linearGradient id="paint0_linear_35_1749" x1="6.86021" y1="1.73241" x2="10.4621" y2="8.8036" gradientUnits="userSpaceOnUse">
<stop stop-color="#A72517"/>
<stop offset="1" stop-color="#D8313E"/>
</linearGradient>
<linearGradient id="paint1_linear_35_1749" x1="12.0066" y1="1.58198" x2="11.7674" y2="62.938" gradientUnits="userSpaceOnUse">
<stop stop-color="#9A2014"/>
<stop offset="1" stop-color="#CE3226"/>
</linearGradient>
<linearGradient id="paint2_linear_35_1749" x1="4.24416" y1="13.0266" x2="58.7348" y2="49.4994" gradientUnits="userSpaceOnUse">
<stop stop-color="#AF271D"/>
<stop offset="1" stop-color="#E82E1C"/>
</linearGradient>
</defs>
</svg>
