<svg width="76" height="60" viewBox="0 0 76 60" fill="none" xmlns="http://www.w3.org/2000/svg">
<path d="M22.1257 59.9659L22.1215 60.9659H22.1257V59.9659ZM3.31889 46.1591L4.25506 45.8075L3.31889 46.1591ZM3.31889 13.7727L2.38452 13.4164L2.38322 13.4199L3.31889 13.7727ZM10.6484 3.54545L10.0569 2.7392L10.0546 2.74088L10.6484 3.54545ZM33.5746 3.57386L32.9776 4.37615L32.9807 4.37843L33.5746 3.57386ZM40.8757 13.8011L39.94 14.154L39.9419 14.1588L40.8757 13.8011ZM40.9041 46.1875L41.8398 46.5404L41.8403 46.5391L40.9041 46.1875ZM33.603 56.4432L34.1968 57.2478L34.1999 57.2455L33.603 56.4432ZM31.3587 46.6136L30.4941 46.1111L30.4923 46.1143L31.3587 46.6136ZM33.1768 17.6932L32.2188 17.98L32.2208 17.9865L33.1768 17.6932ZM28.8303 10.0795L28.1495 10.8121L28.1572 10.8192L28.8303 10.0795ZM12.8928 13.2614L12.0271 12.7607V12.7607L12.8928 13.2614ZM9.51207 29.9375L8.51207 29.9349V29.9375H9.51207ZM11.0178 42.2386L10.0598 42.5255L10.0617 42.532L11.0178 42.2386ZM15.3643 49.8239L14.6876 50.5601L14.6917 50.5638L15.3643 49.8239ZM22.1299 58.9659C17.8237 58.9478 14.2023 57.8159 11.2139 55.6102L10.0262 57.2193C13.4014 59.7106 17.4504 60.9462 22.1215 60.9659L22.1299 58.9659ZM11.2139 55.6102C8.21781 53.3988 5.88729 50.154 4.25506 45.8075L2.38273 46.5106C4.12171 51.1414 6.65861 54.7338 10.0262 57.2193L11.2139 55.6102ZM4.25506 45.8075C2.62275 41.4608 1.79048 36.1794 1.79048 29.9375H-0.209517C-0.209517 36.3471 0.643823 41.8801 2.38273 46.5106L4.25506 45.8075ZM1.79048 29.9375C1.79048 23.7148 2.62269 18.4528 4.25457 14.1256L2.38322 13.4199C0.643879 18.032 -0.209517 23.5466 -0.209517 29.9375H1.79048ZM4.25325 14.129C5.90399 9.80047 8.24418 6.56292 11.2423 4.35003L10.0546 2.74088C6.68906 5.22496 4.14289 8.80559 2.38453 13.4164L4.25325 14.129ZM11.24 4.35171C14.2487 2.14417 17.8608 1.02273 22.1257 1.02273V-0.977276C17.4892 -0.977276 13.4497 0.249763 10.0569 2.7392L11.24 4.35171ZM22.1257 1.02273C26.389 1.02273 29.9892 2.15264 32.9776 4.37615L34.1715 2.77157C30.7963 0.260238 26.764 -0.977276 22.1257 -0.977276V1.02273ZM32.9807 4.37843C35.9778 6.59057 38.3082 9.8268 39.94 14.154L41.8114 13.4483C40.072 8.83608 37.535 5.25412 34.1684 2.76929L32.9807 4.37843ZM39.9419 14.1588C41.5911 18.4651 42.4325 23.7156 42.4325 29.9375H44.4325C44.4325 23.5457 43.5694 18.0387 41.8096 13.4435L39.9419 14.1588ZM42.4325 29.9375C42.4325 36.1987 41.6002 41.4895 39.968 45.8359L41.8403 46.5391C43.5793 41.9082 44.4325 36.3657 44.4325 29.9375H42.4325ZM39.9684 45.8346C38.3364 50.1622 36.0053 53.4093 33.006 55.6409L34.1999 57.2455C37.5643 54.7422 40.1006 51.1522 41.8398 46.5404L39.9684 45.8346ZM33.0091 55.6386C30.0213 57.8439 26.4108 58.9659 22.1257 58.9659V60.9659C26.7801 60.9659 30.821 59.7394 34.1968 57.2478L33.0091 55.6386ZM22.1257 53.3807C26.474 53.3807 29.8578 51.2203 32.2251 47.113L30.4923 46.1143C28.4277 49.6964 25.6563 51.3807 22.1257 51.3807V53.3807ZM32.2232 47.1162C34.5864 43.0508 35.7109 37.2864 35.7109 29.9375H33.7109C33.7109 37.134 32.6007 42.4871 30.4941 46.1111L32.2232 47.1162ZM35.7109 29.9375C35.7109 25.0438 35.1936 20.8569 34.1329 17.3999L32.2208 17.9865C33.2056 21.1961 33.7109 25.1721 33.7109 29.9375H35.7109ZM34.1348 17.4063C33.0973 13.9414 31.5721 11.2226 29.5033 9.33994L28.1572 10.8192C29.8763 12.3835 31.2488 14.7404 32.2189 17.98L34.1348 17.4063ZM29.511 9.34702C27.4482 7.43007 24.9691 6.46591 22.1257 6.46591V8.46591C24.4717 8.46591 26.4623 9.24416 28.1495 10.8121L29.511 9.34702ZM22.1257 6.46591C17.7927 6.46591 14.411 8.63937 12.0271 12.7607L13.7584 13.7621C15.8442 10.1561 18.6178 8.46591 22.1257 8.46591V6.46591ZM12.0271 12.7607C9.66607 16.8425 8.53122 22.6042 8.51208 29.9349L10.5121 29.9401C10.5308 22.7633 11.6497 17.4075 13.7584 13.7621L12.0271 12.7607ZM8.51207 29.9375C8.51207 34.8487 9.01971 39.0521 10.0598 42.5255L11.9757 41.9518C11.0082 38.7207 10.5121 34.7233 10.5121 29.9375H8.51207ZM10.0617 42.532C11.1181 45.975 12.6422 48.68 14.6876 50.5601L16.0411 49.0876C14.3365 47.5208 12.9628 45.1689 11.9738 41.9453L10.0617 42.532ZM14.6917 50.5638C16.7585 52.4427 19.255 53.3807 22.1257 53.3807V51.3807C19.7313 51.3807 17.7202 50.6141 16.037 49.0839L14.6917 50.5638ZM75.5845 0.81818H76.5845V-0.18182H75.5845V0.81818ZM75.5845 59V60H76.5845V59H75.5845ZM66.7777 59H65.7777V60H66.7777V59ZM66.7777 9.625H67.7777V8.625H66.7777V9.625ZM66.4368 9.625V8.625H66.1392L65.89 8.78773L66.4368 9.625ZM52.5163 18.7159H51.5163V20.5633L53.0631 19.5532L52.5163 18.7159ZM52.5163 10.3068L51.9692 9.46976L51.5163 9.76577V10.3068H52.5163ZM67.0334 0.81818V-0.18182H66.7356L66.4863 -0.018877L67.0334 0.81818ZM74.5845 0.81818V59H76.5845V0.81818H74.5845ZM75.5845 58H66.7777V60H75.5845V58ZM67.7777 59V9.625H65.7777V59H67.7777ZM66.7777 8.625H66.4368V10.625H66.7777V8.625ZM65.89 8.78773L51.9695 17.8786L53.0631 19.5532L66.9836 10.4623L65.89 8.78773ZM53.5163 18.7159V10.3068H51.5163V18.7159H53.5163ZM53.0635 11.1439L67.5805 1.65524L66.4863 -0.018877L51.9692 9.46976L53.0635 11.1439ZM67.0334 1.81818H75.5845V-0.18182H67.0334V1.81818Z" fill="white"/>
</svg>
