<svg width="92" height="60" viewBox="0 0 92 60" fill="none" xmlns="http://www.w3.org/2000/svg">
<path d="M21.5007 59.9659L21.4965 60.9659H21.5007V59.9659ZM2.69389 46.1591L3.63006 45.8075L2.69389 46.1591ZM2.69389 13.7727L1.75952 13.4164L1.75822 13.4199L2.69389 13.7727ZM10.0234 3.54545L9.43186 2.7392L9.42959 2.74088L10.0234 3.54545ZM32.9496 3.57386L32.3526 4.37615L32.3557 4.37843L32.9496 3.57386ZM40.2507 13.8011L39.315 14.154L39.3169 14.1588L40.2507 13.8011ZM40.2791 46.1875L41.2148 46.5404L41.2153 46.5391L40.2791 46.1875ZM32.978 56.4432L33.5718 57.2478L33.5749 57.2455L32.978 56.4432ZM30.7337 46.6136L29.8691 46.1111L29.8673 46.1143L30.7337 46.6136ZM32.5518 17.6932L31.5938 17.98L31.5958 17.9865L32.5518 17.6932ZM28.2053 10.0795L27.5245 10.8121L27.5322 10.8192L28.2053 10.0795ZM12.2678 13.2614L11.4021 12.7607V12.7607L12.2678 13.2614ZM8.88707 29.9375L7.88707 29.9349V29.9375H8.88707ZM10.3928 42.2386L9.43476 42.5255L9.43674 42.532L10.3928 42.2386ZM14.7393 49.8239L14.0626 50.5601L14.0667 50.5638L14.7393 49.8239ZM21.5049 58.9659C17.1987 58.9478 13.5773 57.8159 10.5889 55.6102L9.40118 57.2193C12.7764 59.7106 16.8254 60.9462 21.4965 60.9659L21.5049 58.9659ZM10.5889 55.6102C7.59281 53.3988 5.26229 50.154 3.63006 45.8075L1.75773 46.5106C3.49671 51.1414 6.03361 54.7338 9.40118 57.2193L10.5889 55.6102ZM3.63006 45.8075C1.99775 41.4608 1.16548 36.1794 1.16548 29.9375H-0.834517C-0.834517 36.3471 0.0188227 41.8801 1.75773 46.5106L3.63006 45.8075ZM1.16548 29.9375C1.16548 23.7148 1.99769 18.4528 3.62957 14.1256L1.75822 13.4199C0.0188789 18.032 -0.834517 23.5466 -0.834517 29.9375H1.16548ZM3.62825 14.129C5.27899 9.80047 7.61918 6.56292 10.6173 4.35003L9.42959 2.74088C6.06406 5.22496 3.51789 8.80559 1.75953 13.4164L3.62825 14.129ZM10.615 4.35171C13.6237 2.14417 17.2358 1.02273 21.5007 1.02273V-0.977276C16.8642 -0.977276 12.8247 0.249763 9.43187 2.7392L10.615 4.35171ZM21.5007 1.02273C25.764 1.02273 29.3642 2.15264 32.3526 4.37615L33.5465 2.77157C30.1713 0.260238 26.139 -0.977276 21.5007 -0.977276V1.02273ZM32.3557 4.37843C35.3528 6.59057 37.6832 9.8268 39.315 14.154L41.1864 13.4483C39.447 8.83608 36.91 5.25412 33.5434 2.76929L32.3557 4.37843ZM39.3169 14.1588C40.9661 18.4651 41.8075 23.7156 41.8075 29.9375H43.8075C43.8075 23.5457 42.9444 18.0387 41.1846 13.4435L39.3169 14.1588ZM41.8075 29.9375C41.8075 36.1987 40.9752 41.4895 39.343 45.8359L41.2153 46.5391C42.9543 41.9082 43.8075 36.3657 43.8075 29.9375H41.8075ZM39.3434 45.8346C37.7114 50.1622 35.3803 53.4093 32.381 55.6409L33.5749 57.2455C36.9393 54.7422 39.4756 51.1522 41.2148 46.5404L39.3434 45.8346ZM32.3841 55.6386C29.3963 57.8439 25.7858 58.9659 21.5007 58.9659V60.9659C26.1551 60.9659 30.196 59.7394 33.5718 57.2478L32.3841 55.6386ZM21.5007 53.3807C25.849 53.3807 29.2328 51.2203 31.6001 47.113L29.8673 46.1143C27.8027 49.6964 25.0313 51.3807 21.5007 51.3807V53.3807ZM31.5982 47.1162C33.9614 43.0508 35.0859 37.2864 35.0859 29.9375H33.0859C33.0859 37.134 31.9757 42.4871 29.8691 46.1111L31.5982 47.1162ZM35.0859 29.9375C35.0859 25.0438 34.5686 20.8569 33.5079 17.3999L31.5958 17.9865C32.5806 21.1961 33.0859 25.1721 33.0859 29.9375H35.0859ZM33.5098 17.4063C32.4723 13.9414 30.9471 11.2226 28.8783 9.33994L27.5322 10.8192C29.2513 12.3835 30.6238 14.7404 31.5939 17.98L33.5098 17.4063ZM28.886 9.34702C26.8232 7.43007 24.3441 6.46591 21.5007 6.46591V8.46591C23.8467 8.46591 25.8373 9.24416 27.5245 10.8121L28.886 9.34702ZM21.5007 6.46591C17.1677 6.46591 13.786 8.63937 11.4021 12.7607L13.1334 13.7621C15.2192 10.1561 17.9928 8.46591 21.5007 8.46591V6.46591ZM11.4021 12.7607C9.04107 16.8425 7.90622 22.6042 7.88708 29.9349L9.88707 29.9401C9.90581 22.7633 11.0247 17.4075 13.1334 13.7621L11.4021 12.7607ZM7.88707 29.9375C7.88707 34.8487 8.39471 39.0521 9.43478 42.5255L11.3507 41.9518C10.3832 38.7207 9.88707 34.7233 9.88707 29.9375H7.88707ZM9.43674 42.532C10.4931 45.975 12.0172 48.68 14.0626 50.5601L15.4161 49.0876C13.7115 47.5208 12.3378 45.1689 11.3488 41.9453L9.43674 42.532ZM14.0667 50.5638C16.1335 52.4427 18.63 53.3807 21.5007 53.3807V51.3807C19.1063 51.3807 17.0952 50.6141 15.412 49.0839L14.0667 50.5638ZM52.8857 59H51.8857V60H52.8857V59ZM52.8857 52.6364L52.1661 51.9419L51.8857 52.2325V52.6364H52.8857ZM72.5732 32.2386L73.2927 32.9331L73.2986 32.9269L72.5732 32.2386ZM77.772 26.4148L76.9988 25.7806L76.9981 25.7815L77.772 26.4148ZM80.5277 11.7841L79.6854 12.3232L79.6887 12.3283L80.5277 11.7841ZM76.8061 8.51705L76.3632 9.41366L76.372 9.41789L76.8061 8.51705ZM61.2095 17.6932V18.6932H62.2095V17.6932H61.2095ZM52.8288 17.6932H51.8288V18.6932H52.8288V17.6932ZM55.272 8.40341L56.1241 8.92683V8.92683L55.272 8.40341ZM61.9766 2.23864L62.4333 3.12828L62.4379 3.12585L61.9766 2.23864ZM81.3232 2.21023L80.8591 3.09609L80.8663 3.09979L81.3232 2.21023ZM87.8857 8.11932L87.0391 8.65162L87.0409 8.65452L87.8857 8.11932ZM89.022 22.8636L88.0918 22.4967L88.0889 22.5041L89.022 22.8636ZM84.8459 29.767L85.6308 30.3867L85.633 30.3838L84.8459 29.767ZM76.5504 38.9432L75.8377 38.2417L75.8325 38.247L75.8274 38.2524L76.5504 38.9432ZM64.9879 51.0455L64.2649 50.3547L63.9879 50.6445V51.0455H64.9879ZM64.9879 51.4716H63.9879V52.4716H64.9879V51.4716ZM91.1811 51.4716H92.1811V50.4716H91.1811V51.4716ZM91.1811 59V60H92.1811V59H91.1811ZM53.8857 59V52.6364H51.8857V59H53.8857ZM53.6052 53.3308L73.2927 32.9331L71.8536 31.5442L52.1661 51.9419L53.6052 53.3308ZM73.2986 32.9269C75.4114 30.6999 77.1619 28.7396 78.546 27.048L76.9981 25.7815C75.6548 27.4233 73.9395 29.3455 71.8477 31.5504L73.2986 32.9269ZM78.5452 27.049C79.9674 25.3151 81.0533 23.6401 81.7805 22.024L79.9567 21.2033C79.3203 22.6175 78.3418 24.1432 76.9988 25.7806L78.5452 27.049ZM81.7805 22.024C82.5219 20.3764 82.8913 18.6263 82.8913 16.7841H80.8913C80.8913 18.3509 80.5789 19.8205 79.9567 21.2033L81.7805 22.024ZM82.8913 16.7841C82.8913 14.69 82.3965 12.8276 81.3667 11.2399L79.6887 12.3283C80.4771 13.5436 80.8913 15.0145 80.8913 16.7841H82.8913ZM81.37 11.245C80.3574 9.6629 78.9731 8.45129 77.2402 7.6162L76.372 9.41789C77.7831 10.0979 78.8798 11.0644 79.6854 12.3231L81.37 11.245ZM77.249 7.62047C75.5231 6.76793 73.5978 6.35227 71.4936 6.35227V8.35227C73.3288 8.35227 74.9452 8.71313 76.3632 9.41362L77.249 7.62047ZM71.4936 6.35227C69.2718 6.35227 67.2824 6.80765 65.558 7.75401L66.5202 9.50735C67.9017 8.74916 69.5488 8.35227 71.4936 8.35227V6.35227ZM65.558 7.75401C63.8362 8.69886 62.5037 10.0414 61.5784 11.7658L63.3407 12.7115C64.082 11.3298 65.1358 10.267 66.5202 9.50735L65.558 7.75401ZM61.5784 11.7658C60.654 13.4886 60.2095 15.4749 60.2095 17.6932H62.2095C62.2095 15.7448 62.5984 14.0948 63.3407 12.7115L61.5784 11.7658ZM61.2095 16.6932H52.8288V18.6932H61.2095V16.6932ZM53.8288 17.6932C53.8288 14.3102 54.6048 11.4 56.1241 8.92683L54.4199 7.87999C52.6816 10.7098 51.8288 13.9928 51.8288 17.6932H53.8288ZM56.1241 8.92683C57.6545 6.43551 59.7507 4.50532 62.4332 3.12827L61.5199 1.349C58.5206 2.88862 56.1471 5.06828 54.4199 7.87999L56.1241 8.92683ZM62.4379 3.12585C65.1188 1.73182 68.1862 1.02273 71.6641 1.02273V-0.977276C67.9071 -0.977276 64.5162 -0.209093 61.5152 1.35142L62.4379 3.12585ZM71.6641 1.02273C75.1842 1.02273 78.2399 1.72409 80.8591 3.09606L81.7872 1.32439C78.8382 -0.220303 75.4546 -0.977276 71.6641 -0.977276V1.02273ZM80.8663 3.09979C83.5209 4.46292 85.5691 6.31375 87.0391 8.65162L88.7322 7.58701C87.0583 4.92488 84.7315 2.83631 81.78 1.32066L80.8663 3.09979ZM87.0409 8.65452C88.5049 10.9651 89.2436 13.5802 89.2436 16.5284H91.2436C91.2436 13.2266 90.4103 10.2356 88.7304 7.58411L87.0409 8.65452ZM89.2436 16.5284C89.2436 18.5584 88.8614 20.5458 88.0918 22.4967L89.9522 23.2306C90.8114 21.0527 91.2436 18.8166 91.2436 16.5284H89.2436ZM88.0889 22.5041C87.3413 24.4442 86.0115 26.6581 84.0587 29.1503L85.633 30.3838C87.6575 27.8002 89.1118 25.4118 89.9551 23.2232L88.0889 22.5041ZM84.061 29.1474C82.1039 31.6264 79.3665 34.6563 75.8377 38.2417L77.2631 39.6446C80.8177 36.0331 83.6106 32.9455 85.6308 30.3867L84.061 29.1474ZM75.8274 38.2524L64.2649 50.3547L65.711 51.7363L77.2735 39.634L75.8274 38.2524ZM63.9879 51.0455V51.4716H65.9879V51.0455H63.9879ZM64.9879 52.4716H91.1811V50.4716H64.9879V52.4716ZM90.1811 51.4716V59H92.1811V51.4716H90.1811ZM91.1811 58H52.8857V60H91.1811V58Z" fill="white"/>
</svg>
