<svg width="95" height="60" viewBox="0 0 95 60" fill="none" xmlns="http://www.w3.org/2000/svg">
<path d="M22.2507 59.9659L22.2465 60.9659H22.2507V59.9659ZM3.44389 46.1591L4.38006 45.8075L3.44389 46.1591ZM3.44389 13.7727L2.50952 13.4164L2.50822 13.4199L3.44389 13.7727ZM10.7734 3.54545L10.1819 2.7392L10.1796 2.74088L10.7734 3.54545ZM33.6996 3.57386L33.1026 4.37615L33.1057 4.37843L33.6996 3.57386ZM41.0007 13.8011L40.065 14.154L40.0669 14.1588L41.0007 13.8011ZM41.0291 46.1875L41.9648 46.5404L41.9653 46.5391L41.0291 46.1875ZM33.728 56.4432L34.3218 57.2478L34.3249 57.2455L33.728 56.4432ZM31.4837 46.6136L30.6191 46.1111L30.6173 46.1143L31.4837 46.6136ZM33.3018 17.6932L32.3438 17.98L32.3458 17.9865L33.3018 17.6932ZM28.9553 10.0795L28.2745 10.8121L28.2822 10.8192L28.9553 10.0795ZM13.0178 13.2614L12.1521 12.7607V12.7607L13.0178 13.2614ZM9.63707 29.9375L8.63707 29.9349V29.9375H9.63707ZM11.1428 42.2386L10.1848 42.5255L10.1867 42.532L11.1428 42.2386ZM15.4893 49.8239L14.8126 50.5601L14.8167 50.5638L15.4893 49.8239ZM22.2549 58.9659C17.9487 58.9478 14.3273 57.8159 11.3389 55.6102L10.1512 57.2193C13.5264 59.7106 17.5754 60.9462 22.2465 60.9659L22.2549 58.9659ZM11.3389 55.6102C8.34281 53.3988 6.01229 50.154 4.38006 45.8075L2.50773 46.5106C4.24671 51.1414 6.78361 54.7338 10.1512 57.2193L11.3389 55.6102ZM4.38006 45.8075C2.74775 41.4608 1.91548 36.1794 1.91548 29.9375H-0.084517C-0.084517 36.3471 0.768823 41.8801 2.50773 46.5106L4.38006 45.8075ZM1.91548 29.9375C1.91548 23.7148 2.74769 18.4528 4.37957 14.1256L2.50822 13.4199C0.768879 18.032 -0.084517 23.5466 -0.084517 29.9375H1.91548ZM4.37825 14.129C6.02899 9.80047 8.36918 6.56292 11.3673 4.35003L10.1796 2.74088C6.81406 5.22496 4.26789 8.80559 2.50953 13.4164L4.37825 14.129ZM11.365 4.35171C14.3737 2.14417 17.9858 1.02273 22.2507 1.02273V-0.977276C17.6142 -0.977276 13.5747 0.249763 10.1819 2.7392L11.365 4.35171ZM22.2507 1.02273C26.514 1.02273 30.1142 2.15264 33.1026 4.37615L34.2965 2.77157C30.9213 0.260238 26.889 -0.977276 22.2507 -0.977276V1.02273ZM33.1057 4.37843C36.1028 6.59057 38.4332 9.8268 40.065 14.154L41.9364 13.4483C40.197 8.83608 37.66 5.25412 34.2934 2.76929L33.1057 4.37843ZM40.0669 14.1588C41.7161 18.4651 42.5575 23.7156 42.5575 29.9375H44.5575C44.5575 23.5457 43.6944 18.0387 41.9346 13.4435L40.0669 14.1588ZM42.5575 29.9375C42.5575 36.1987 41.7252 41.4895 40.093 45.8359L41.9653 46.5391C43.7043 41.9082 44.5575 36.3657 44.5575 29.9375H42.5575ZM40.0934 45.8346C38.4614 50.1622 36.1303 53.4093 33.131 55.6409L34.3249 57.2455C37.6893 54.7422 40.2256 51.1522 41.9648 46.5404L40.0934 45.8346ZM33.1341 55.6386C30.1463 57.8439 26.5358 58.9659 22.2507 58.9659V60.9659C26.9051 60.9659 30.946 59.7394 34.3218 57.2478L33.1341 55.6386ZM22.2507 53.3807C26.599 53.3807 29.9828 51.2203 32.3501 47.113L30.6173 46.1143C28.5527 49.6964 25.7813 51.3807 22.2507 51.3807V53.3807ZM32.3482 47.1162C34.7114 43.0508 35.8359 37.2864 35.8359 29.9375H33.8359C33.8359 37.134 32.7257 42.4871 30.6191 46.1111L32.3482 47.1162ZM35.8359 29.9375C35.8359 25.0438 35.3186 20.8569 34.2579 17.3999L32.3458 17.9865C33.3306 21.1961 33.8359 25.1721 33.8359 29.9375H35.8359ZM34.2598 17.4063C33.2223 13.9414 31.6971 11.2226 29.6283 9.33994L28.2822 10.8192C30.0013 12.3835 31.3738 14.7404 32.3439 17.98L34.2598 17.4063ZM29.636 9.34702C27.5732 7.43007 25.0941 6.46591 22.2507 6.46591V8.46591C24.5967 8.46591 26.5873 9.24416 28.2745 10.8121L29.636 9.34702ZM22.2507 6.46591C17.9177 6.46591 14.536 8.63937 12.1521 12.7607L13.8834 13.7621C15.9692 10.1561 18.7428 8.46591 22.2507 8.46591V6.46591ZM12.1521 12.7607C9.79107 16.8425 8.65622 22.6042 8.63708 29.9349L10.6371 29.9401C10.6558 22.7633 11.7747 17.4075 13.8834 13.7621L12.1521 12.7607ZM8.63707 29.9375C8.63707 34.8487 9.14471 39.0521 10.1848 42.5255L12.1007 41.9518C11.1332 38.7207 10.6371 34.7233 10.6371 29.9375H8.63707ZM10.1867 42.532C11.2431 45.975 12.7672 48.68 14.8126 50.5601L16.1661 49.0876C14.4615 47.5208 13.0878 45.1689 12.0988 41.9453L10.1867 42.532ZM14.8167 50.5638C16.8835 52.4427 19.38 53.3807 22.2507 53.3807V51.3807C19.8563 51.3807 17.8452 50.6141 16.162 49.0839L14.8167 50.5638ZM63.4368 57.7784L63.0333 58.6934L63.0354 58.6943L63.4368 57.7784ZM56.1925 52.1818L55.3856 52.7727L55.3909 52.7798L56.1925 52.1818ZM53.3516 43.8295V42.8295H52.3088L52.3524 43.8714L53.3516 43.8295ZM62.272 43.8295L63.2699 43.7638L63.2083 42.8295H62.272V43.8295ZM64.005 48.3182L63.232 48.9527L63.2372 48.959L63.2425 48.9652L64.005 48.3182ZM68.1527 51.2159L68.5241 50.2874L68.1527 51.2159ZM79.9141 51.0455L79.5061 50.1324L79.5025 50.1341L79.9141 51.0455ZM84.0902 47.7216L84.9069 48.2987L84.9104 48.2936L84.0902 47.7216ZM84.0902 37.608L83.2549 38.1578L83.2589 38.1639L83.2631 38.17L84.0902 37.608ZM79.7436 34.0852L79.3332 34.9972L79.3366 34.9987L79.7436 34.0852ZM67.9538 32.8068H66.9538V33.8068H67.9538V32.8068ZM67.9538 25.6477V24.6477H66.9538V25.6477H67.9538ZM78.5504 24.483L78.1241 23.5784L78.1201 23.5803L78.5504 24.483ZM82.4141 21.2443L83.2444 21.8017L83.2478 21.7964L82.4141 21.2443ZM82.5845 11.642L81.7238 12.1512L81.7281 12.1584L81.7324 12.1655L82.5845 11.642ZM79.1754 8.48864L78.7144 9.37605L78.7191 9.37845L79.1754 8.48864ZM68.6925 8.40341L69.0786 9.32587L69.0838 9.32365L68.6925 8.40341ZM64.7152 11.358L65.4938 11.9855L65.4983 11.9798L64.7152 11.358ZM63.0675 15.9318V16.9318H64.0258L64.0666 15.9743L63.0675 15.9318ZM54.5732 15.9318L53.5736 15.9017L53.5426 16.9318H54.5732V15.9318ZM57.3572 7.63636L56.5557 7.03839L56.5527 7.04251L57.3572 7.63636ZM64.4027 2.03977L64.8214 2.9479L64.4027 2.03977ZM83.7777 2.21023L83.3036 3.09073L83.3109 3.09461L83.7777 2.21023ZM90.0845 7.97727L89.2324 8.50063L89.2354 8.50547L90.0845 7.97727ZM92.3004 15.875L91.3004 15.8684L91.3004 15.8808L92.3004 15.875ZM89.5732 24.1705L88.7954 23.5418L88.7923 23.5458L89.5732 24.1705ZM82.3004 28.7443L82.0522 27.7756L81.3004 27.9683V28.7443H82.3004ZM82.3004 29.1989H81.3004V30.0584L82.1502 30.1875L82.3004 29.1989ZM91.2777 33.8011L90.5176 34.451L90.5205 34.4543L91.2777 33.8011ZM94.4595 43.0341L93.4595 43.0289L93.4595 43.04L94.4595 43.0341ZM91.7891 51.642L90.9733 51.0637L90.9704 51.0678L91.7891 51.642ZM84.4879 57.6364L84.9105 58.5427L84.9151 58.5406L84.4879 57.6364ZM73.8913 58.7955C70.1055 58.7955 66.7607 58.1434 63.8382 56.8625L63.0354 58.6943C66.2492 60.1029 69.8742 60.7955 73.8913 60.7955V58.7955ZM63.8403 56.8634C60.9296 55.5798 58.6593 53.8161 56.994 51.5839L55.3909 52.7798C57.2862 55.3203 59.8455 57.2876 63.0333 58.6934L63.8403 56.8634ZM56.9993 51.591C55.3624 49.3557 54.4755 46.7654 54.3507 43.7877L52.3524 43.8714C52.4928 47.2194 53.4998 50.1973 55.3857 52.7726L56.9993 51.591ZM53.3516 44.8295H62.272V42.8295H53.3516V44.8295ZM61.2742 43.8953C61.4008 45.8157 62.0507 47.5136 63.232 48.9527L64.7779 47.6837C63.8759 46.5849 63.3705 45.2904 63.2699 43.7638L61.2742 43.8953ZM63.2425 48.9652C64.4207 50.3538 65.9438 51.4094 67.7813 52.1444L68.5241 50.2874C66.9525 49.6588 65.7105 48.7826 64.7675 47.6712L63.2425 48.9652ZM67.7813 52.1444C69.6188 52.8794 71.641 53.2386 73.8345 53.2386V51.2386C71.8614 51.2386 70.0957 50.9161 68.5241 50.2874L67.7813 52.1444ZM73.8345 53.2386C76.2421 53.2386 78.4132 52.8205 80.3257 51.9568L79.5025 50.1341C77.8922 50.8613 76.0103 51.2386 73.8345 51.2386V53.2386ZM80.322 51.9585C82.2459 51.0988 83.7873 49.883 84.9069 48.2987L83.2735 47.1445C82.3855 48.4011 81.1428 49.4012 79.5061 50.1324L80.322 51.9585ZM84.9104 48.2936C86.0394 46.6747 86.5959 44.8148 86.5959 42.75H84.5959C84.5959 44.4352 84.1486 45.8897 83.27 47.1496L84.9104 48.2936ZM86.5959 42.75C86.5959 40.6181 86.0442 38.7043 84.9173 37.0459L83.2631 38.17C84.1438 39.4662 84.5959 40.9803 84.5959 42.75H86.5959ZM84.9255 37.0581C83.8188 35.3768 82.208 34.0884 80.1506 33.1718L79.3366 34.9987C81.105 35.7866 82.3919 36.8466 83.2549 38.1578L84.9255 37.0581ZM80.154 33.1733C78.0989 32.2485 75.6595 31.8068 72.8686 31.8068V33.8068C75.4565 33.8068 77.6004 34.2174 79.3332 34.9971L80.154 33.1733ZM72.8686 31.8068H67.9538V33.8068H72.8686V31.8068ZM68.9538 32.8068V25.6477H66.9538V32.8068H68.9538ZM67.9538 26.6477H72.8686V24.6477H67.9538V26.6477ZM72.8686 26.6477C75.1477 26.6477 77.1937 26.2376 78.9808 25.3856L78.1201 23.5803C76.6496 24.2814 74.9077 24.6477 72.8686 24.6477V26.6477ZM78.9767 25.3875C80.7722 24.5414 82.2062 23.3483 83.2444 21.8016L81.5838 20.687C80.7659 21.9055 79.6241 22.8715 78.1241 23.5784L78.9767 25.3875ZM83.2478 21.7964C84.2966 20.2126 84.8061 18.3774 84.8061 16.3295H82.8061C82.8061 18.0317 82.3876 19.473 81.5803 20.6922L83.2478 21.7964ZM84.8061 16.3295C84.8061 14.3749 84.362 12.6252 83.4366 11.1186L81.7324 12.1655C82.4358 13.3105 82.8061 14.6857 82.8061 16.3295H84.8061ZM83.4452 11.1329C82.5475 9.61536 81.266 8.43692 79.6317 7.59882L78.7191 9.37845C80.0394 10.0555 81.0306 10.9793 81.7238 12.1512L83.4452 11.1329ZM79.6364 7.60123C78.0088 6.75569 76.1207 6.35227 74.005 6.35227V8.35227C75.8665 8.35227 77.4254 8.70643 78.7144 9.37604L79.6364 7.60123ZM74.005 6.35227C71.9844 6.35227 70.0797 6.72678 68.3011 7.48317L69.0838 9.32365C70.6007 8.67852 72.2376 8.35227 74.005 8.35227V6.35227ZM68.3063 7.48097C66.5338 8.22296 65.0674 9.30647 63.9321 10.7361L65.4983 11.9798C66.4085 10.8337 67.5936 9.9475 69.0786 9.32585L68.3063 7.48097ZM63.9366 10.7304C62.7671 12.1815 62.1523 13.9165 62.0684 15.8893L64.0666 15.9743C64.1341 14.3865 64.6178 13.0723 65.4938 11.9855L63.9366 10.7304ZM63.0675 14.9318H54.5732V16.9318H63.0675V14.9318ZM55.5727 15.9619C55.6617 13.0084 56.5288 10.4427 58.1618 8.23021L56.5527 7.04251C54.663 9.60273 53.674 12.5674 53.5736 15.9017L55.5727 15.9619ZM58.1588 8.23432C59.8316 5.99208 62.0439 4.22841 64.8214 2.9479L63.984 1.13164C60.9281 2.54052 58.4435 4.50792 56.5557 7.0384L58.1588 8.23432ZM64.8214 2.9479C67.5931 1.67002 70.6867 1.02273 74.1186 1.02273V-0.977276C70.4293 -0.977276 67.0456 -0.279877 63.984 1.13164L64.8214 2.9479ZM74.1186 1.02273C77.7191 1.02273 80.7689 1.72587 83.3036 3.0907L84.2518 1.32975C81.3698 -0.22209 77.9802 -0.977276 74.1186 -0.977276V1.02273ZM83.3109 3.09461C85.8949 4.45834 87.8575 6.26195 89.2324 8.50062L90.9366 7.45392C89.357 4.88198 87.1151 2.8409 84.2445 1.32584L83.3109 3.09461ZM89.2354 8.50547C90.6308 10.7487 91.3182 13.1955 91.3004 15.8684L93.3004 15.8816C93.3206 12.8348 92.5307 10.0164 90.9336 7.44907L89.2354 8.50547ZM91.3004 15.8808C91.3182 18.9357 90.4707 21.4693 88.7955 23.5418L90.3509 24.7991C92.3498 22.3261 93.3205 19.3294 93.3004 15.8692L91.3004 15.8808ZM88.7923 23.5458C87.12 25.6361 84.889 27.0487 82.0522 27.7756L82.5487 29.713C85.7724 28.8869 88.3899 27.2503 90.354 24.7951L88.7923 23.5458ZM81.3004 28.7443V29.1989H83.3004V28.7443H81.3004ZM82.1502 30.1875C85.8255 30.746 88.5819 32.1869 90.5176 34.451L92.0378 33.1513C89.7311 30.4533 86.5026 28.8259 82.4507 28.2102L82.1502 30.1875ZM90.5205 34.4543C92.4835 36.73 93.4774 39.5649 93.4595 43.0289L95.4595 43.0392C95.4795 39.1548 94.3522 35.8344 92.0349 33.148L90.5205 34.4543ZM93.4595 43.04C93.4773 46.038 92.6478 48.7017 90.9733 51.0637L92.6049 52.2204C94.5288 49.5066 95.4796 46.4317 95.4595 43.0282L93.4595 43.04ZM90.9704 51.0678C89.2996 53.4495 87.0073 55.3403 84.0608 56.7322L84.9151 58.5406C88.1428 57.0158 90.7179 54.9104 92.6077 52.2163L90.9704 51.0678ZM84.0653 56.73C81.131 58.0982 77.7469 58.7955 73.8913 58.7955V60.7955C77.9903 60.7955 81.6707 60.0533 84.9105 58.5427L84.0653 56.73Z" fill="white"/>
</svg>
