<svg width="162" height="36" viewBox="0 0 162 36" fill="none" xmlns="http://www.w3.org/2000/svg">
<g clip-path="url(#clip0_0_649)">
<path d="M15.6892 0.594877C10.2625 1.21055 5.60659 4.05291 2.69794 8.51655C1.58793 10.2097 0.63209 12.5697 0.200419 14.6938C-0.0668062 16.0175 -0.0668062 19.9373 0.200419 21.261C1.30015 26.6892 4.72269 31.1631 9.57385 33.5642C11.6089 34.5698 13.4897 35.1137 15.8125 35.3599C16.46 35.4318 21.0954 35.4728 28.9374 35.4728C39.1742 35.4728 41.2503 35.4523 42.2781 35.3189C46.5434 34.7648 50.0173 33.0512 52.8951 30.0651C54.2107 28.7004 55.0535 27.5306 55.8757 25.9299C57.2016 23.3338 57.7566 20.9839 57.7566 17.9774C57.7566 14.9709 57.2016 12.621 55.8757 10.0249C55.0535 8.4242 54.2107 7.25442 52.8951 5.88967C50.0173 2.90365 46.5434 1.19003 42.2781 0.635922C41.2503 0.502526 39.2153 0.482003 28.7627 0.492265C21.9998 0.502526 16.1106 0.543571 15.6892 0.594877ZM41.5792 12.4158C43.6553 12.9802 45.3512 14.6117 45.8548 16.5408C46.0501 17.3207 46.0501 18.6341 45.8548 19.414C45.3409 21.3739 43.6348 23.0054 41.5278 23.539C40.87 23.7134 39.9553 23.7237 28.8449 23.7237C17.6728 23.7237 16.83 23.7134 16.2031 23.539C14.1578 22.9849 12.7497 21.7638 12.02 19.9168C11.7733 19.2806 11.7425 19.0754 11.7425 17.9774C11.7425 16.8795 11.7733 16.6742 12.02 16.038C12.8319 13.9755 14.5689 12.6313 16.8711 12.2927C17.2103 12.2414 22.7604 12.2106 29.2046 12.2209C39.9553 12.2414 40.9728 12.2516 41.5792 12.4158ZM124.532 14.1807V25.7246H128.129V2.63686H124.532V14.1807ZM154.235 10.1891C152.56 10.5585 151.224 11.5333 150.556 12.8878C150.186 13.6266 150.175 13.6985 150.175 14.7349C150.175 15.6994 150.206 15.8841 150.453 16.4177C151.059 17.7003 152.323 18.511 154.554 19.0548C157.431 19.7526 158.079 20.0091 158.459 20.6248C159.107 21.692 158.089 22.7284 156.28 22.831C154.841 22.9131 153.259 22.4718 151.994 21.6509C151.676 21.4354 151.357 21.2302 151.285 21.1789C151.203 21.1276 150.854 21.5175 150.237 22.3282C149.723 23.0054 149.291 23.6006 149.281 23.6519C149.189 24.0007 151.83 25.4476 153.259 25.8478C154.369 26.1453 157.01 26.1761 158.038 25.8991C159.713 25.4476 160.957 24.5035 161.604 23.1798C161.985 22.4103 161.995 22.3795 161.995 21.2097C161.995 20.081 161.985 19.9989 161.656 19.3421C160.936 17.8748 159.59 17.0642 156.681 16.3356C155.684 16.0893 154.687 15.7918 154.461 15.6789C153.588 15.2274 153.372 14.5194 153.927 13.8832C154.328 13.4317 154.996 13.2059 155.941 13.2059C156.969 13.2059 157.616 13.3598 158.685 13.8524C159.21 14.0884 159.621 14.2218 159.672 14.1705C159.96 13.8421 161.327 11.8822 161.327 11.7899C161.327 11.6154 160.217 10.969 159.374 10.6509C157.791 10.0352 155.766 9.86077 154.235 10.1891ZM96.3397 10.497C93.3694 11.1537 91.4064 13.052 90.6047 16.0278C90.4197 16.6742 90.3786 17.136 90.3786 18.2339C90.3683 19.8449 90.5327 20.6145 91.1289 21.8767C91.8792 23.4877 92.9275 24.5651 94.4692 25.3142C95.7745 25.9504 96.4014 26.0735 98.1178 26.0838C99.8753 26.0838 100.492 25.9504 101.869 25.2731C102.774 24.8216 103.873 23.9802 103.873 23.7442C103.873 23.6724 103.329 23.0772 102.661 22.4103L101.438 21.1892L100.841 21.6099C98.8578 22.9951 95.9903 22.6052 94.757 20.7685C94.2122 19.9578 93.9861 19.219 93.9758 18.2339C93.9553 16.2433 94.9317 14.7964 96.6789 14.2218C97.902 13.8113 99.5773 13.996 100.646 14.6528C100.821 14.7554 101.016 14.8477 101.068 14.8477C101.181 14.8477 103.257 12.2311 103.257 12.0977C103.257 11.8514 101.335 10.8561 100.328 10.5791C99.4437 10.343 97.2339 10.2917 96.3397 10.497ZM78.0965 10.6304C77.6854 10.733 76.9454 11.0203 76.452 11.2563C75.7223 11.6154 75.3831 11.872 74.6329 12.6313C74.0367 13.2265 73.5845 13.8011 73.3687 14.2115C72.012 16.7768 72.012 19.691 73.3687 22.2563C73.5845 22.6668 74.0367 23.2414 74.6329 23.8366C75.3831 24.5959 75.7223 24.8422 76.4315 25.191C77.6546 25.7965 78.6721 26.0325 80.0493 26.0325C81.4677 26.0325 82.3927 25.8272 83.5746 25.2629C85.0957 24.5343 86.216 23.4159 86.9663 21.8767C87.6036 20.594 87.7783 19.7936 87.7783 18.2339C87.7783 16.6742 87.6036 15.8739 86.9663 14.5912C86.216 13.0418 85.1163 11.9438 83.5746 11.205C83.071 10.9587 82.3207 10.6919 81.9096 10.5996C80.9024 10.3738 79.0729 10.3944 78.0965 10.6304ZM81.9507 14.4373C85.0238 15.8636 84.9827 20.6043 81.8993 22.0614C81.2518 22.3692 81.1388 22.3897 80.0801 22.3897C79.0318 22.3897 78.8982 22.3692 78.2815 22.0716C76.1643 21.066 75.3215 18.3879 76.4212 16.2022C77.4182 14.2321 79.854 13.4522 81.9507 14.4373ZM106.063 15.6378C106.093 19.8655 106.124 20.6453 106.278 21.261C106.885 23.6826 108.581 25.3655 110.924 25.8888C111.993 26.1248 113.822 26.0427 114.768 25.7246C115.549 25.4578 116.227 25.1295 116.711 24.7601C116.906 24.6164 117.101 24.5241 117.142 24.5549C117.194 24.5856 117.235 24.8627 117.235 25.1705V25.7246H120.421V10.7432H116.824V14.8169C116.824 17.0847 116.772 19.1985 116.721 19.5679C116.402 21.5586 115.066 22.7078 113.093 22.6873C112.394 22.677 112.209 22.636 111.613 22.3282C110.482 21.7535 109.927 20.8095 109.732 19.0754C109.68 18.5828 109.629 16.51 109.629 14.4578V10.7432H106.011L106.063 15.6378ZM131.963 15.2787C131.994 17.8235 132.076 20.1528 132.138 20.5838C132.559 23.3338 134.173 25.1808 136.722 25.8272C138.705 26.3403 141.172 25.8991 142.642 24.7703L143.125 24.4009L143.186 25.0679L143.258 25.7246H146.424V10.7432H142.827V14.4578C142.827 19.7526 142.714 20.5427 141.819 21.5278C140.935 22.5129 139.569 22.9233 138.304 22.6052C137.112 22.2974 136.331 21.5483 135.92 20.3067C135.704 19.65 135.694 19.4345 135.653 15.1761L135.622 10.7432H131.901L131.963 15.2787Z" fill="white"/>
</g>
<defs>
<clipPath id="clip0_0_649">
<rect width="162" height="35" fill="white" transform="translate(0 0.480469)"/>
</clipPath>
</defs>
</svg>
