    <svg width="176" height="38" viewBox="0 0 176 38" fill="none" xmlns="http://www.w3.org/2000/svg">
<path fill-rule="evenodd" clip-rule="evenodd" d="M165.807 18.8076H33.1084V19.845H176V18.8076H165.807Z" fill="white"/>
<path fill-rule="evenodd" clip-rule="evenodd" d="M56.9782 27.2913H60.0766V28.0281H56.1113V21.8792H56.9782V27.2913ZM60.8201 23.5399H61.5636V28.0281H60.8201V23.5399ZM60.8201 21.8792H61.5636V22.7404H60.8201V21.8792ZM63.2994 25.7531C63.2994 25.2005 63.3616 24.0944 64.5386 24.0944C65.5921 24.0944 65.7155 25.2633 65.7155 26C65.7155 27.1689 64.972 27.4755 64.4764 27.4755C63.6707 27.4755 63.2994 26.7368 63.2994 25.7531ZM66.459 23.5399H65.7155V24.1542C65.5289 23.9092 65.2198 23.4174 64.4141 23.4174C63.175 23.4174 62.4937 24.4011 62.4937 25.6307C62.4937 26.677 62.9894 28.0908 64.4764 28.0908C65.0964 28.0908 65.4677 27.8439 65.6543 27.5363V27.4755H65.7165V27.6607C65.7165 28.2133 65.7165 29.2587 64.4152 29.2587C64.2285 29.2587 63.5472 29.2587 63.4238 28.5199H62.6803C62.8048 29.7505 63.8583 29.8729 64.3539 29.8729C66.461 29.8729 66.461 28.275 66.461 27.598V23.5399H66.459ZM71.1678 28.0281H70.4243V25.0781C70.4243 24.4618 70.2387 24.0944 69.4952 24.0944C68.8751 24.0944 68.256 24.4618 68.256 25.5699V28.0281H67.5125V21.8792H68.256V24.1542C68.5039 23.8465 68.8751 23.4174 69.6186 23.4174C70.2999 23.4174 71.1678 23.7251 71.1678 24.9536V28.0281ZM73.2136 24.1542V27.0434C73.2136 27.4128 73.5237 27.4128 73.7093 27.4128H73.9571V28.0271C73.6471 28.0271 73.4615 28.0888 73.4003 28.0888C72.6558 28.0888 72.4702 27.6587 72.4702 27.1052V24.1532H71.8501V23.5389H72.4702V22.3113H73.2136V23.5399H73.9571V24.1542H73.2136ZM82.26 28.0281V24.4011V22.8629L80.5251 28.0281H79.7194L77.9846 22.8629H77.9224C77.9224 23.4174 77.9846 24.2159 77.9846 24.4011V28.0281H77.1789V21.8792H78.3569L80.0917 27.0444H80.1539L81.8887 21.8792H83.0657V28.0281H82.26ZM84.8617 25.3857C84.8617 24.7087 85.4195 24.0944 86.1008 24.0944C87.0299 24.0944 87.2778 24.7087 87.34 25.3857H84.8617ZM87.341 26.6143C87.2788 26.922 86.8453 27.4755 86.163 27.4755C85.2951 27.4755 84.8617 26.921 84.8617 26H88.1457C88.1457 24.4618 87.4634 23.4174 86.162 23.4174C84.675 23.4174 84.055 24.5235 84.055 25.8776C84.055 27.1689 84.7985 28.0908 86.0376 28.0908C86.7811 28.0908 87.0911 27.9683 87.2768 27.7832C87.8346 27.4138 88.0203 26.7995 88.0825 26.6143H87.341ZM91.8019 26.4301C91.8019 27.0444 91.1197 27.4765 90.3772 27.4765C89.8183 27.4765 89.5715 27.2296 89.5715 26.7378C89.5715 26.1852 90.1283 26.0627 90.5006 26.001C91.4919 25.8786 91.6785 25.8158 91.8019 25.6934V26.4301ZM89.6959 24.8939C89.7581 24.5245 89.8825 24.0327 90.7484 24.0327C91.4307 24.0327 91.8029 24.2796 91.8029 24.7714C91.8029 25.2015 91.5541 25.2633 91.4307 25.2633L90.1293 25.4465C88.8912 25.5709 88.7678 26.4301 88.7678 26.8622C88.7678 27.599 89.3868 28.0908 90.1925 28.0908C91.0604 28.0908 91.5541 27.7214 91.8029 27.4138C91.8651 27.7214 91.9264 28.0908 92.6086 28.0908C92.7953 28.0908 92.9187 28.0291 93.0421 27.9684V27.4765H92.7953C92.6086 27.4765 92.5464 27.4148 92.5464 27.2296V24.647C92.5464 23.5409 91.2451 23.4184 90.8748 23.4184C89.7601 23.4184 89.0778 23.8485 89.0146 24.8939H89.6959ZM96.3883 24.8312C96.3883 24.5235 96.2649 24.0317 95.3338 24.0317C95.0869 24.0317 94.4047 24.1542 94.4047 24.7087C94.4047 25.0781 94.6515 25.1388 95.2104 25.2633L96.0161 25.4465C96.9452 25.6934 97.2542 26.0628 97.2542 26.6153C97.2542 27.5373 96.5117 28.0908 95.4572 28.0908C93.7224 28.0908 93.5367 27.1071 93.5367 26.5546H94.2812C94.2812 26.922 94.4047 27.4765 95.4572 27.4765C96.0161 27.4765 96.5117 27.2296 96.5117 26.7378C96.5117 26.4301 96.2649 26.3077 95.5826 26.1235L94.7147 25.9383C94.0956 25.7531 93.6602 25.4465 93.6602 24.8322C93.6602 23.8485 94.5281 23.4184 95.396 23.4184C97.0064 23.4184 97.1308 24.5873 97.1308 24.8322H96.3883V24.8312ZM101.035 28.0281V27.3531C100.725 27.8429 100.353 28.0898 99.6101 28.0898C98.9278 28.0898 98.1231 27.7822 98.1231 26.7368V23.5399H98.9288V26.4919C98.9288 27.2286 99.3011 27.4755 99.7967 27.4755C100.726 27.4755 101.035 26.6143 101.035 26V23.5399H101.779V28.0281H101.035ZM103.76 28.0281H103.018V23.5399H103.7V24.2786H103.761C104.01 23.7868 104.443 23.4174 105.001 23.4174H105.188V24.2169H104.939C104.196 24.2169 103.761 24.7714 103.761 25.3857V28.0281H103.76ZM106.363 25.3857C106.363 24.7087 106.922 24.0944 107.603 24.0944C108.532 24.0944 108.841 24.7087 108.841 25.3857H106.363ZM108.842 26.6143C108.781 26.922 108.409 27.4755 107.664 27.4755C106.798 27.4755 106.363 26.921 106.363 26H109.647C109.647 24.4618 109.028 23.4174 107.726 23.4174C106.239 23.4174 105.557 24.5235 105.557 25.8776C105.557 27.1689 106.302 28.0908 107.541 28.0908C108.285 28.0908 108.595 27.9683 108.781 27.7832C109.338 27.4138 109.587 26.7995 109.587 26.6143H108.842ZM110.578 23.5399H111.258V24.1542C111.445 23.9092 111.817 23.4174 112.622 23.4174C113.426 23.4174 113.736 23.9092 113.86 24.1542C114.232 23.7241 114.542 23.4174 115.223 23.4174C115.719 23.4174 116.587 23.6623 116.587 24.8929V28.0271H115.843V25.1378C115.843 24.5235 115.656 24.0934 115.037 24.0934C114.355 24.0934 113.984 24.7077 113.984 25.2623V28.0271H113.179V24.8929C113.179 24.5235 113.053 24.0934 112.496 24.0934C112.063 24.0934 111.318 24.3384 111.318 25.5689V28.0271H110.576V23.5399H110.578ZM118.323 25.3857C118.323 24.7087 118.88 24.0944 119.561 24.0944C120.492 24.0944 120.801 24.7087 120.801 25.3857H118.323ZM120.802 26.6143C120.74 26.922 120.367 27.4755 119.624 27.4755C118.756 27.4755 118.323 26.921 118.323 26H121.607C121.607 24.4618 120.988 23.4174 119.686 23.4174C118.199 23.4174 117.517 24.5235 117.517 25.8776C117.517 27.1689 118.26 28.0908 119.501 28.0908C120.243 28.0908 120.553 27.9683 120.739 27.7832C121.298 27.4138 121.545 26.7995 121.545 26.6143H120.802ZM126.193 28.0281H125.449V25.2633C125.449 24.4618 125.202 24.0944 124.457 24.0944C124.024 24.0944 123.281 24.3393 123.281 25.5699V28.0281H122.537V23.5399H123.219V24.1542C123.406 23.9092 123.838 23.4174 124.583 23.4174C125.325 23.4174 126.193 23.7251 126.193 24.9536V28.0281ZM128.237 24.1542V27.0434C128.237 27.4128 128.547 27.4128 128.67 27.4128H128.981V28.0271C128.67 28.0271 128.487 28.0888 128.361 28.0888C127.619 28.0888 127.496 27.6587 127.496 27.1052V24.1532H126.874V23.5389H127.496V22.3113H128.238V23.5399H128.981V24.1542H128.237ZM135.921 23.6623C135.859 22.6807 135.053 22.4337 134.371 22.4337C133.875 22.4337 132.946 22.5562 132.946 23.4801C132.946 24.0327 133.318 24.1552 133.69 24.2796L135.425 24.647C136.231 24.8322 136.85 25.324 136.85 26.3077C136.85 27.7832 135.488 28.1535 134.434 28.1535C133.256 28.1535 132.823 27.8439 132.574 27.599C132.017 27.1071 131.954 26.6153 131.954 26.001H132.699C132.699 27.1071 133.628 27.4765 134.434 27.4765C135.053 27.4765 136.044 27.2913 136.044 26.4301C136.044 25.7531 135.734 25.5709 134.743 25.324L133.441 25.0164C133.069 24.9546 132.14 24.647 132.14 23.6026C132.14 22.6189 132.759 21.697 134.247 21.697C136.416 21.697 136.663 22.9883 136.663 23.6633H135.921V23.6623ZM138.337 25.7531C138.337 25.1388 138.586 24.0317 139.638 24.0317C140.753 24.0317 140.94 25.1378 140.94 25.7531C140.94 26.3694 140.753 27.4755 139.638 27.4755C138.586 27.4755 138.337 26.3694 138.337 25.7531ZM137.594 25.7531C137.594 26.922 138.213 28.0908 139.638 28.0908C141.063 28.0908 141.745 26.922 141.745 25.7531C141.745 24.5863 141.063 23.4174 139.638 23.4174C138.213 23.4174 137.594 24.5863 137.594 25.7531ZM142.613 21.8792H143.356V28.0281H142.613V21.8792ZM147.445 28.0281V27.3531C147.135 27.8429 146.703 28.0898 146.021 28.0898C145.338 28.0898 144.534 27.7822 144.534 26.7368V23.5399H145.276V26.4919C145.276 27.2286 145.648 27.4755 146.144 27.4755C147.135 27.4755 147.382 26.6143 147.382 26V23.5399H148.188V28.0281H147.445ZM150.235 24.1542V27.0434C150.235 27.4128 150.545 27.4128 150.668 27.4128H150.978V28.0271C150.668 28.0271 150.483 28.0888 150.359 28.0888C149.617 28.0888 149.491 27.6587 149.491 27.1052V24.1532H148.872V23.5389H149.491V22.3113H150.236V23.5399H150.978V24.1542H150.235ZM151.722 23.5399H152.464V28.0281H151.722V23.5399ZM151.722 21.8792H152.464V22.7404H151.722V21.8792ZM154.138 25.7531C154.138 25.1388 154.385 24.0317 155.439 24.0317C156.492 24.0317 156.741 25.1378 156.741 25.7531C156.741 26.3694 156.492 27.4755 155.439 27.4755C154.385 27.4755 154.138 26.3694 154.138 25.7531ZM153.333 25.7531C153.333 26.922 154.015 28.0908 155.44 28.0908C156.865 28.0908 157.547 26.922 157.547 25.7531C157.547 24.5863 156.865 23.4174 155.44 23.4174C154.015 23.4174 153.333 24.5863 153.333 25.7531ZM162.069 28.0281H161.327V25.2633C161.327 24.4618 161.078 24.0944 160.336 24.0944C159.9 24.0944 159.158 24.3393 159.158 25.5699V28.0281H158.415V23.5399H159.095V24.1542C159.282 23.9092 159.717 23.4174 160.459 23.4174C161.202 23.4174 162.069 23.7251 162.069 24.9536V28.0281ZM165.726 24.8312C165.726 24.5235 165.6 24.0317 164.671 24.0317C164.424 24.0317 163.742 24.1542 163.742 24.7087C163.742 25.0781 163.989 25.1388 164.61 25.2633L165.352 25.4465C166.282 25.6934 166.591 26.0628 166.591 26.6153C166.591 27.5373 165.848 28.0908 164.856 28.0908C163.059 28.0908 162.935 27.1071 162.872 26.5546H163.617C163.617 26.922 163.74 27.4765 164.793 27.4765C165.351 27.4765 165.847 27.2296 165.847 26.7378C165.847 26.4301 165.598 26.3077 164.979 26.1235L164.05 25.9383C163.431 25.7531 163.059 25.4465 163.059 24.8322C163.059 23.8485 163.864 23.4184 164.732 23.4184C166.343 23.4184 166.467 24.5873 166.467 24.8322H165.726V24.8312ZM146.764 16.1624L148.375 10.3829C148.375 10.3829 148.437 10.0752 148.375 9.76759C148.375 9.64513 148.064 9.45995 147.879 9.39922H150.854C150.854 9.39922 151.04 9.39922 151.226 9.52267C151.287 9.5844 151.287 9.76859 151.287 9.83032C151.287 10.0762 151.164 10.3839 151.164 10.3839C151.164 10.3839 151.474 9.64613 151.908 9.52367C152.279 9.40021 152.527 9.40021 152.651 9.40021H154.138C154.138 9.40021 155.129 9.40021 155.316 9.83032C155.439 10.0145 155.563 10.3221 155.439 10.6915C155.316 11.0599 154.014 16.2251 154.014 16.2251C154.014 16.2251 153.889 16.6562 154.014 17.0246C154.138 17.3322 154.695 17.5782 154.695 17.5782H151.783C151.783 17.5782 151.226 17.394 151.164 16.9629C151.103 16.717 151.103 16.5328 151.164 16.2251C151.226 15.6716 152.465 11.4303 152.465 11.4303C152.465 11.4303 152.775 10.6925 152.218 10.6925H151.66C151.846 10.6925 151.164 10.6308 150.977 11.3685C150.854 11.8604 149.616 16.3486 149.616 16.3486C149.616 16.3486 149.49 16.7787 149.677 17.1481C149.864 17.394 150.298 17.5164 150.298 17.5164H147.198C147.198 17.5164 146.764 17.394 146.704 16.9021C146.703 16.4083 146.764 16.1624 146.764 16.1624ZM161.017 10.6895C160.891 10.0125 160.645 10.0742 160.335 10.0742C159.652 10.0742 159.343 11.6722 159.28 11.9808C159.219 12.2885 158.474 14.9318 158.351 15.4854C158.351 15.4854 158.102 16.469 158.413 16.7767C159.032 17.4527 159.715 16.0389 159.528 16.4073C159.715 16.038 159.898 15.3619 159.898 15.3619H162.812C162.686 15.3619 162.686 16.3456 161.944 17.0216C161.695 17.2675 161.325 17.391 161.015 17.4517C160.703 17.5752 159.092 17.5752 158.597 17.5752C158.163 17.5752 157.607 17.5134 156.8 17.4517C155.685 17.39 155.624 16.7757 155.562 16.714C155.375 16.4063 155.562 15.4227 155.562 15.4227L156.43 12.0416C156.43 11.9798 156.74 10.6895 157.112 10.2584C157.607 9.58241 158.597 9.52068 158.597 9.45895C159.032 9.39722 161.511 9.39722 162.067 9.52068C163.182 9.70487 163.618 10.5043 163.492 10.3202C163.741 10.6278 163.804 10.8737 163.741 11.3038C163.71 11.5766 163.648 11.8449 163.554 12.1033H160.828C160.954 11.7349 161.017 10.9972 161.017 10.6895ZM143.109 9.39922H146.144C146.267 9.39922 146.578 9.46094 146.578 9.64513C146.64 9.95277 146.703 9.76759 146.516 10.5053L145.029 16.469C145.029 16.469 144.906 16.8384 145.029 17.0843C145.091 17.3302 145.4 17.5144 145.463 17.5144H142.488C142.488 17.5144 142.118 17.4527 142.054 17.0226C142.054 16.9609 142.117 16.5925 142.117 16.4073C142.178 16.2221 143.604 10.3819 143.604 10.3819C143.604 10.3819 143.665 10.0125 143.541 9.70586C143.479 9.58341 143.109 9.39922 143.109 9.39922ZM147.693 8.59974H144.658C144.535 8.59974 144.286 8.53801 144.225 8.16864C144.162 8.04519 144.162 7.861 144.225 7.67681C144.286 7.43089 144.348 7.24671 144.411 7.06252C144.472 6.93906 144.472 6.75488 144.411 6.50896C144.411 6.3855 144.162 6.13959 143.916 6.13959H146.827C147.014 6.13959 147.261 6.26304 147.323 6.3855C147.384 6.57069 147.384 6.87733 147.323 7.00079C147.261 7.18498 147.198 7.37016 147.136 7.73854C147.136 7.98446 147.074 7.92273 147.136 8.16864C147.26 8.41456 147.693 8.59974 147.693 8.59974ZM59.0231 1.03708H68.7517C69.9286 1.03708 70.1143 1.59064 70.1143 1.59064C70.1143 1.7131 70.4865 2.08148 70.2999 2.94268C70.052 3.86462 69.1229 8.10791 68.8129 8.78393C68.7507 9.02984 68.5029 9.70587 68.255 10.0752C68.0072 10.3829 67.6349 10.7513 67.2637 10.7513H62.1205L60.9435 15.9772C60.8191 16.469 60.8813 16.5925 61.0057 16.9001C61.1301 17.2078 61.7492 17.5762 61.8726 17.5762H57.2251C56.4816 17.4527 56.4194 16.9001 56.3581 16.6542C56.2959 16.3466 56.5448 15.2405 56.5448 15.2405C56.7926 14.3793 59.58 2.94368 59.7666 2.51258C59.8288 2.20494 59.8288 1.89829 59.7666 1.7131C59.58 1.15954 58.9609 1.03708 58.9609 1.03708H59.0231ZM63.6085 10.0135C64.2275 10.0135 64.3519 9.39922 64.3519 9.39922C64.3519 9.39922 65.9001 2.75849 66.0868 2.20493C66.2112 1.77383 65.6533 1.77383 65.6533 1.77383H64.2897L62.3071 10.0125L63.6085 10.0135ZM72.0357 1.03708H76.4966C76.4966 1.03708 76.8689 1.03708 77.0545 1.34472C77.3023 1.65237 77.1167 2.26666 77.1167 2.32839C76.9301 2.82022 75.6909 8.10791 75.6909 8.10791H77.7358L79.0994 2.32839C79.0994 2.32839 79.2238 1.83656 79.1616 1.59064C79.0994 1.34373 78.9137 1.03708 78.5415 1.03708H82.879C82.879 1.03708 83.3747 1.09881 83.5613 1.34472C83.5613 1.40645 83.6235 1.77483 83.5613 2.02074C83.4991 2.45184 80.2151 16.1017 80.2151 16.1017C80.2151 16.1017 80.0917 16.5935 80.2151 16.9011C80.3395 17.2088 80.8352 17.5772 80.9596 17.5772H76.6221C76.6221 17.5772 76.2498 17.5154 75.9408 17.0236C75.8786 16.8394 75.7542 16.6542 75.8786 15.9782C76.3742 14.2568 77.1177 10.7523 77.1177 10.7523H75.0107L73.7093 16.1634C73.7093 16.1634 73.6471 16.7787 73.7715 17.0246C73.7715 17.0246 74.1438 17.5782 74.4528 17.5782H69.9918C69.9918 17.5782 69.3718 17.3322 69.3106 17.1481C69.3106 17.2098 69.0627 16.5945 69.1861 16.2251C69.1239 16.3486 72.718 2.20693 72.718 2.20693C72.718 2.20693 72.7802 1.71509 72.5936 1.40745C72.5936 1.46719 72.2835 1.03708 72.0357 1.03708ZM86.4731 1.95902C87.4644 1.15954 88.1457 1.15954 89.1992 1.09881C90.5628 1.03708 92.5444 1.09881 93.2889 1.16054C93.7846 1.16054 94.8993 1.283 95.4562 1.96002C96.0151 2.57431 96.0773 3.55797 95.9518 4.11252C95.8906 4.66608 94.9625 8.66246 94.8993 9.03084C94.7759 9.33848 93.5979 14.1951 93.4123 14.8104C93.1023 15.7323 92.73 16.47 92.2344 16.7777C91.9243 16.9619 91.6153 17.2695 90.3139 17.393C88.7658 17.5772 85.7908 17.5772 84.9851 17.5154C85.2951 17.5154 83.3747 17.3312 83.0024 16.7777C82.8168 16.5318 82.259 15.9165 82.569 14.5027C82.9402 13.2114 83.8704 9.52267 83.9316 9.1533C83.9938 9.09157 85.1085 4.29571 85.3563 3.68043C85.4818 3.25032 85.9774 2.26666 86.4731 1.95902ZM88.5179 8.78393C88.4557 8.90738 86.7831 15.6088 86.7831 15.8548C86.7209 16.2231 86.7831 16.2849 86.8453 16.4083C87.0932 16.9002 87.7744 16.7777 87.7132 16.7777C88.2089 16.7777 88.5189 16.47 88.6413 16.2859C88.828 16.0399 89.0136 15.3639 89.0768 15.2405C89.138 15.0563 90.5016 9.03084 90.5638 8.84566C90.625 8.66147 91.9254 3.00441 91.9254 2.69776C91.9876 2.26666 91.8641 2.26666 91.7387 2.02074C91.6775 1.83656 91.2431 1.83656 91.0584 1.83656C90.7464 1.77483 90.4996 1.89829 90.4374 1.96002C90.1273 2.26766 90.1905 2.26766 90.0039 2.51357C89.8193 2.82022 88.5801 8.59974 88.5179 8.78393ZM101.035 3.74216H98.681C98.4322 3.74216 98.0619 3.86461 98.0619 3.86461C97.9365 3.92634 97.5662 4.23399 97.5662 4.29572C97.504 4.41917 98.1853 1.7131 98.2465 1.65137C98.2465 1.52891 98.4332 1.282 98.6188 1.15954C98.8676 1.03609 99.4867 1.03609 99.5479 1.03609H108.223C108.346 1.03609 108.533 1.09781 108.842 0.912631C108.965 0.850903 109.278 0.543261 109.278 0.481533C109.278 0.419805 108.719 3.06415 108.656 3.12587C108.591 3.32596 108.461 3.49895 108.286 3.61771C108.085 3.68272 107.876 3.72415 107.665 3.74116H105.249C105.249 3.74116 102.399 15.4844 102.399 15.6686C102.276 16.0997 102.213 16.714 102.337 16.9599C102.524 17.391 103.02 17.5752 103.143 17.5752H98.6198C98.682 17.5752 98.2475 17.6369 97.9375 17.1451C97.7509 16.7757 97.8763 16.0379 97.9375 15.792C98.1853 15.117 101.035 3.74216 101.035 3.74216ZM130.157 2.08148C130.157 2.01975 130.22 1.95902 130.096 1.52892C130.096 1.22127 129.601 1.03708 129.601 1.03708H134.184C134.433 1.03708 134.619 1.34472 134.496 1.22127C134.557 1.22127 134.681 1.59064 134.619 1.83656C134.557 2.08247 131.212 15.6706 131.212 15.8558C131.212 16.1634 131.087 16.47 131.212 16.8394C131.399 17.1471 131.894 17.5772 132.078 17.5772H127.555C127.308 17.5772 127.059 17.3312 126.998 17.2078C126.998 17.2078 126.688 16.7777 126.688 16.3476C126.688 16.0399 126.316 9.70686 126.316 9.70686C126.316 9.70686 124.829 15.9165 124.765 16.1624C124.642 16.5318 124.704 16.7777 124.765 17.0236C124.952 17.3312 125.448 17.5772 125.573 17.5772H120.988C120.676 17.5772 120.367 17.393 120.305 17.1471C120.182 16.9011 120.119 16.716 120.182 16.2859C120.182 16.1017 123.714 2.32839 123.776 2.08248C123.776 1.83656 123.714 1.59164 123.589 1.40646C123.464 1.22127 122.968 1.03708 123.154 1.03708H127.493C127.803 1.03708 128.049 1.40646 128.112 1.40646C128.173 1.59164 128.235 1.89828 128.235 2.1442L128.607 8.78492C128.609 8.78393 130.096 2.20494 130.157 2.08148ZM111.384 1.95902C112.375 1.15954 113.118 1.15954 114.11 1.09881C115.473 1.05215 116.838 1.07275 118.199 1.16054C118.695 1.16054 119.81 1.283 120.367 1.96002C120.926 2.57431 120.988 3.55797 120.862 4.11252C120.801 4.66608 119.871 8.66246 119.81 9.03084C119.686 9.40021 118.508 14.1951 118.323 14.8104C118.013 15.7323 117.641 16.47 117.145 16.7777C116.835 16.9619 116.526 17.2695 115.224 17.393C113.676 17.5772 110.701 17.5772 109.896 17.5154C110.268 17.5154 108.285 17.3312 107.912 16.7777C107.725 16.5318 107.167 15.9165 107.478 14.5027C107.849 13.2114 108.78 9.52267 108.84 9.1533C108.902 9.09157 110.018 4.29571 110.267 3.68043C110.452 3.25032 110.888 2.26666 111.384 1.95902ZM113.427 8.78393C113.365 8.90738 111.693 15.6088 111.693 15.8548C111.63 16.2231 111.693 16.2849 111.816 16.4083C112.003 16.9002 112.684 16.7777 112.622 16.7777C113.117 16.7777 113.49 16.47 113.551 16.2859C113.737 16.0399 113.923 15.3639 113.986 15.2405C114.047 15.0563 115.411 9.03084 115.471 8.84566C115.533 8.66147 116.835 3.06614 116.835 2.69776C116.897 2.26666 116.773 2.26666 116.648 2.02074C116.587 1.83656 116.153 1.83656 115.966 1.83656C115.656 1.77483 115.409 1.89829 115.347 1.96002C115.037 2.26766 115.1 2.26766 114.913 2.51357C114.729 2.82022 113.491 8.59974 113.427 8.78393Z" fill="white"/>
<path fill-rule="evenodd" clip-rule="evenodd" d="M7.18148 1.17188H33.7922C35.2218 1.17188 35.9688 1.23304 36.6524 1.53688C37.2746 1.78054 37.3984 2.69402 37.2122 3.79098C37.0259 4.52197 29.5024 34.1292 29.441 34.4952C29.441 35.2251 29.5034 35.896 30.187 36.5668C30.4981 36.9327 30.9954 37.4802 31.5542 37.4802H3.57627C3.01651 37.4802 1.95941 36.9929 1.64832 36.4454C1.33723 35.7746 1.39965 35.1048 1.39965 34.434C1.46207 34.0078 8.92217 4.70446 9.10943 3.85214C9.3581 2.99982 9.17185 2.45134 8.86076 2.0242C8.67451 1.78054 7.92749 1.29321 7.18148 1.17188Z" fill="white"/>
<path fill-rule="evenodd" clip-rule="evenodd" d="M11.2145 4.28394H28.6227C31.358 4.28394 31.9801 5.02045 31.9801 5.02045C31.9177 4.89721 33.0996 6.18635 32.6637 7.90588C32.2288 9.62441 30.4258 17.6038 29.866 18.9556C29.7412 19.3223 29.2439 20.7964 28.6227 21.4713C27.4418 22.7604 26.2599 22.6381 26.0737 22.6381C24.8304 22.6381 17.1834 22.6998 17.1834 22.6998L14.6343 33.3191C14.4471 33.8101 14.7582 34.5456 14.9454 34.7921C15.2565 35.0992 16.0639 35.4054 16.375 35.4054H7.0497C5.8064 35.4054 5.93022 33.8101 5.93022 33.9324C5.86781 33.6252 6.36513 31.9057 6.36513 31.9057C6.73862 30.2498 12.2716 7.78263 12.5826 6.98548C12.8313 6.18734 12.8313 6.00346 12.7075 5.3892C12.3954 4.28394 11.2145 4.28394 11.2145 4.28394Z" fill="black"/>
<path fill-rule="evenodd" clip-rule="evenodd" d="M17.4258 21.227L21.099 5.67631H23.0575C23.0575 5.67631 24.7097 5.49219 24.343 6.78302C24.0981 7.70462 21.1604 20.182 21.1604 20.182C21.1604 20.182 20.7312 21.228 19.2624 21.228L17.4258 21.227Z" fill="white"/>
<path fill-rule="evenodd" clip-rule="evenodd" d="M0 18.8075V19.8449H21.7717L21.9564 18.8075H0Z" fill="white"/>
</svg>
