<svg width="132" height="55 " viewBox="0 0 132 55" fill="none" xmlns="http://www.w3.org/2000/svg">
<path d="M47 27.4853C47 24.3459 43.1009 21.3707 37.1229 19.5257C38.5024 13.3822 37.8893 8.49438 35.1877 6.92951C34.565 6.56244 33.8369 6.38857 33.0418 6.38857V8.54268C33.4825 8.54268 33.8369 8.62961 34.1339 8.79383C35.4368 9.54728 36.002 12.4162 35.5614 16.1062C35.456 17.0142 35.2835 17.9705 35.0728 18.9462C33.1951 18.4825 31.1449 18.1251 28.9894 17.8932C27.6961 16.1062 26.3549 14.4834 25.0041 13.0634C28.1272 10.1365 31.0587 8.53302 33.0514 8.53302V6.37891C30.4168 6.37891 26.968 8.2722 23.4808 11.5565C19.9937 8.29152 16.5448 6.41755 13.9103 6.41755V8.57165C15.8934 8.57165 18.8345 10.1655 21.9576 13.0731C20.6164 14.493 19.2752 16.1062 18.001 17.8932C15.8359 18.1251 13.7858 18.4825 11.9081 18.9558C11.6877 17.9898 11.5249 17.0529 11.4099 16.1545C10.9596 12.4645 11.5153 9.59558 12.8086 8.83247C13.096 8.65859 13.4696 8.58131 13.9103 8.58131V6.4272C13.1056 6.4272 12.3775 6.60108 11.7452 6.96815C9.0532 8.53302 8.44965 13.4112 9.83877 19.5354C3.87994 21.3901 0 24.3556 0 27.4853C0 30.6247 3.8991 33.5999 9.87709 35.4449C8.49755 41.5884 9.11068 46.4762 11.8123 48.0411C12.435 48.4082 13.1631 48.5821 13.9678 48.5821C16.6023 48.5821 20.0512 46.6888 23.5383 43.4045C27.0255 46.6694 30.4743 48.5434 33.1088 48.5434C33.9136 48.5434 34.6417 48.3695 35.274 48.0025C37.966 46.4376 38.5695 41.5595 37.1804 35.4352C43.1201 33.5902 47 30.615 47 27.4853ZM34.5267 21.0423C34.1722 22.2884 33.7316 23.5731 33.2334 24.8579C32.8406 24.0851 32.4287 23.3123 31.9784 22.5396C31.5377 21.7668 31.0683 21.0133 30.5989 20.2792C31.9592 20.482 33.2717 20.7332 34.5267 21.0423ZM30.139 31.3299C29.3918 32.6339 28.6254 33.8704 27.8302 35.0199C26.4028 35.1454 24.9562 35.2131 23.5 35.2131C22.0534 35.2131 20.6068 35.1454 19.189 35.0295C18.3938 33.88 17.6178 32.6532 16.8706 31.3588C16.1425 30.0934 15.4815 28.8087 14.8779 27.5143C15.4719 26.2199 16.1425 24.9255 16.861 23.6601C17.6082 22.356 18.3746 21.1196 19.1698 19.9701C20.5972 19.8445 22.0438 19.7769 23.5 19.7769C24.9466 19.7769 26.3932 19.8445 27.811 19.9604C28.6062 21.1099 29.3822 22.3367 30.1294 23.6311C30.8575 24.8965 31.5185 26.1813 32.1221 27.4757C31.5185 28.77 30.8575 30.0644 30.139 31.3299ZM33.2334 30.0741C33.7507 31.3685 34.1914 32.6629 34.5554 33.9187C33.3004 34.2278 31.9784 34.4886 30.6084 34.6914C31.0779 33.9476 31.5473 33.1845 31.988 32.4021C32.4287 31.6293 32.8406 30.8469 33.2334 30.0741ZM23.5192 40.381C22.6282 39.4537 21.7373 38.4201 20.8559 37.2899C21.7181 37.3285 22.5995 37.3575 23.4904 37.3575C24.391 37.3575 25.2819 37.3382 26.1537 37.2899C25.2915 38.4201 24.4005 39.4537 23.5192 40.381ZM16.3916 34.6914C15.0312 34.4886 13.7187 34.2374 12.4637 33.9283C12.8182 32.6822 13.2589 31.3975 13.757 30.1127C14.1498 30.8855 14.5618 31.6583 15.012 32.4311C15.4623 33.2038 15.9221 33.9573 16.3916 34.6914ZM23.4713 14.5896C24.3622 15.517 25.2532 16.5506 26.1345 17.6807C25.2723 17.6421 24.391 17.6131 23.5 17.6131C22.5995 17.6131 21.7085 17.6324 20.8367 17.6807C21.6989 16.5506 22.5899 15.517 23.4713 14.5896ZM16.382 20.2792C15.9126 21.023 15.4431 21.7861 15.0024 22.5685C14.5618 23.3413 14.1498 24.1141 13.757 24.8869C13.2397 23.5925 12.799 22.2981 12.435 21.0423C13.69 20.7429 15.012 20.482 16.382 20.2792ZM7.71199 32.3731C4.32063 30.9145 2.12678 29.0019 2.12678 27.4853C2.12678 25.9687 4.32063 24.0465 7.71199 22.5975C8.53588 22.2401 9.4364 21.9213 10.3657 21.6219C10.9117 23.5152 11.6302 25.4858 12.5212 27.5046C11.6398 29.5138 10.9309 31.4748 10.3944 33.3584C9.44599 33.0589 8.54546 32.7305 7.71199 32.3731ZM12.8661 46.1768C11.5632 45.4233 10.998 42.5544 11.4386 38.8644C11.544 37.9564 11.7165 37.0001 11.9272 36.0245C13.8049 36.4881 15.8551 36.8455 18.0106 37.0774C19.3039 38.8644 20.6451 40.4872 21.9959 41.9072C18.8728 44.8341 15.9413 46.4376 13.9486 46.4376C13.5175 46.4279 13.1535 46.341 12.8661 46.1768ZM35.5901 38.8161C36.0404 42.5061 35.4847 45.375 34.1914 46.1382C33.904 46.312 33.5304 46.3893 33.0897 46.3893C31.1066 46.3893 28.1655 44.7955 25.0424 41.8879C26.3836 40.4679 27.7248 38.8548 28.999 37.0677C31.1641 36.8359 33.2142 36.4785 35.0919 36.0051C35.3123 36.9808 35.4847 37.9178 35.5901 38.8161ZM39.2784 32.3731C38.4545 32.7305 37.554 33.0493 36.6247 33.3487C36.0787 31.4554 35.3602 29.4849 34.4692 27.466C35.3506 25.4568 36.0595 23.4959 36.596 21.6122C37.5444 21.9117 38.445 22.2401 39.288 22.5975C42.6794 24.0561 44.8732 25.9687 44.8732 27.4853C44.8636 29.0019 42.6698 30.9242 39.2784 32.3731Z" fill="white"/>
<path d="M23.4904 31.8998C25.9084 31.8998 27.8685 29.9234 27.8685 27.4853C27.8685 25.0473 25.9084 23.0708 23.4904 23.0708C21.0724 23.0708 19.1123 25.0473 19.1123 27.4853C19.1123 29.9234 21.0724 31.8998 23.4904 31.8998Z" fill="white"/>
<path d="M59.4659 37.4805V17.1168H66.3466C67.9375 17.1168 69.2434 17.3886 70.2642 17.9322C71.285 18.4691 72.0407 19.2082 72.5312 20.1495C73.0218 21.0908 73.267 22.1613 73.267 23.3612C73.267 24.561 73.0218 25.6249 72.5312 26.5529C72.0407 27.4809 71.2884 28.2101 70.2741 28.7404C69.2599 29.2641 67.964 29.5259 66.3864 29.5259H60.8182V27.2987H66.3068C67.3939 27.2987 68.2689 27.1396 68.9318 26.8214C69.6013 26.5032 70.0852 26.0524 70.3835 25.4691C70.6884 24.8791 70.8409 24.1765 70.8409 23.3612C70.8409 22.5458 70.6884 21.8332 70.3835 21.2234C70.0786 20.6135 69.5914 20.1429 68.9219 19.8114C68.2524 19.4734 67.3674 19.3043 66.267 19.3043H61.9318V37.4805H59.4659ZM69.0511 28.3327L74.0625 37.4805H71.1989L66.267 28.3327H69.0511ZM82.4572 37.7987C80.9856 37.7987 79.7162 37.4738 78.649 36.8242C77.5884 36.168 76.7697 35.2532 76.193 34.0799C75.6229 32.9 75.3379 31.5278 75.3379 29.9634C75.3379 28.399 75.6229 27.0202 76.193 25.8271C76.7697 24.6272 77.5718 23.6926 78.5993 23.0231C79.6334 22.3469 80.8398 22.0089 82.2186 22.0089C83.014 22.0089 83.7996 22.1415 84.5751 22.4066C85.3507 22.6718 86.0567 23.1026 86.693 23.6992C87.3294 24.2892 87.8365 25.0714 88.2143 26.0458C88.5922 27.0202 88.7811 28.2201 88.7811 29.6452V30.6396H77.0084V28.6112H86.3947C86.3947 27.7494 86.2224 26.9805 85.8777 26.3043C85.5396 25.6282 85.0557 25.0946 84.426 24.7035C83.8029 24.3124 83.0671 24.1168 82.2186 24.1168C81.2839 24.1168 80.4752 24.3488 79.7925 24.8129C79.1163 25.2702 78.596 25.8668 78.2314 26.6026C77.8668 27.3384 77.6845 28.1272 77.6845 28.9691V30.3214C77.6845 31.4748 77.8834 32.4525 78.2811 33.2546C78.6854 34.0501 79.2456 34.6566 79.9615 35.0742C80.6774 35.4852 81.5093 35.6907 82.4572 35.6907C83.0737 35.6907 83.6305 35.6045 84.1277 35.4322C84.6315 35.2532 85.0657 34.988 85.4302 34.6367C85.7948 34.2788 86.0765 33.8346 86.2754 33.3043L88.5425 33.9407C88.3038 34.7096 87.9028 35.3858 87.3393 35.9691C86.7759 36.5458 86.0799 36.9966 85.2513 37.3214C84.4227 37.6396 83.4913 37.7987 82.4572 37.7987ZM96.005 37.8384C95.0372 37.8384 94.1589 37.6561 93.3701 37.2915C92.5812 36.9203 91.9548 36.3867 91.4908 35.6907C91.0268 34.988 90.7948 34.1396 90.7948 33.1452C90.7948 32.2702 90.9671 31.561 91.3118 31.0174C91.6565 30.4672 92.1172 30.0363 92.6939 29.7248C93.2706 29.4132 93.907 29.1812 94.603 29.0288C95.3057 28.8697 96.0116 28.7437 96.7209 28.6509C97.649 28.5316 98.4013 28.4421 98.978 28.3825C99.5614 28.3162 99.9856 28.2068 100.251 28.0543C100.523 27.9019 100.658 27.6367 100.658 27.2589V27.1793C100.658 26.1983 100.39 25.436 99.853 24.8924C99.3227 24.3488 98.5173 24.0771 97.4368 24.0771C96.3166 24.0771 95.4383 24.3223 94.8019 24.8129C94.1655 25.3034 93.7181 25.8271 93.4596 26.3839L91.2323 25.5884C91.63 24.6604 92.1603 23.9379 92.8232 23.4208C93.4927 22.8971 94.2219 22.5326 95.0107 22.3271C95.8062 22.1149 96.5883 22.0089 97.3573 22.0089C97.8478 22.0089 98.4113 22.0685 99.0476 22.1879C99.6906 22.3005 100.31 22.5359 100.907 22.8938C101.51 23.2518 102.011 23.792 102.408 24.5146C102.806 25.2371 103.005 26.2049 103.005 27.418V37.4805H100.658V35.4123H100.539C100.38 35.7437 100.115 36.0984 99.7437 36.4762C99.3724 36.854 98.8786 37.1755 98.2621 37.4407C97.6456 37.7058 96.8933 37.8384 96.005 37.8384ZM96.363 35.7305C97.291 35.7305 98.0732 35.5482 98.7096 35.1836C99.3526 34.819 99.8365 34.3484 100.161 33.7717C100.493 33.195 100.658 32.5884 100.658 31.9521V29.8043C100.559 29.9237 100.34 30.033 100.002 30.1325C99.6707 30.2253 99.2863 30.3081 98.8488 30.381C98.4179 30.4473 97.997 30.507 97.586 30.56C97.1816 30.6064 96.8535 30.6462 96.6016 30.6793C95.9918 30.7589 95.4217 30.8881 94.8914 31.0671C94.3677 31.2395 93.9435 31.5013 93.6187 31.8526C93.3005 32.1973 93.1414 32.668 93.1414 33.2646C93.1414 34.0799 93.443 34.6964 94.0462 35.114C94.6561 35.525 95.4283 35.7305 96.363 35.7305ZM112.653 37.7987C111.221 37.7987 109.988 37.4606 108.954 36.7844C107.92 36.1083 107.124 35.177 106.567 33.9904C106.011 32.8039 105.732 31.4483 105.732 29.9237C105.732 28.3725 106.017 27.0037 106.587 25.8171C107.164 24.6239 107.966 23.6926 108.993 23.0231C110.028 22.3469 111.234 22.0089 112.613 22.0089C113.687 22.0089 114.654 22.2077 115.516 22.6055C116.378 23.0032 117.084 23.56 117.634 24.2759C118.184 24.9918 118.526 25.8271 118.658 26.7816H116.312C116.133 26.0856 115.735 25.4691 115.118 24.9322C114.509 24.3886 113.687 24.1168 112.653 24.1168C111.738 24.1168 110.936 24.3555 110.246 24.8327C109.564 25.3034 109.03 25.9696 108.645 26.8313C108.268 27.6864 108.079 28.6907 108.079 29.8441C108.079 31.024 108.264 32.0515 108.636 32.9265C109.013 33.8015 109.544 34.4809 110.226 34.9648C110.916 35.4487 111.725 35.6907 112.653 35.6907C113.262 35.6907 113.816 35.5846 114.313 35.3725C114.81 35.1604 115.231 34.8555 115.576 34.4577C115.921 34.06 116.166 33.5827 116.312 33.0259H118.658C118.526 33.9274 118.198 34.7395 117.674 35.462C117.157 36.1779 116.471 36.748 115.616 37.1722C114.767 37.5898 113.779 37.7987 112.653 37.7987ZM127.891 22.2077V24.1964H119.976V22.2077H127.891ZM122.283 18.5487H124.629V33.1055C124.629 33.7683 124.725 34.2655 124.918 34.5969C125.117 34.9218 125.368 35.1405 125.673 35.2532C125.985 35.3593 126.313 35.4123 126.658 35.4123C126.916 35.4123 127.128 35.399 127.294 35.3725C127.46 35.3394 127.592 35.3129 127.692 35.293L128.169 37.4009C128.01 37.4606 127.788 37.5202 127.503 37.5799C127.218 37.6462 126.857 37.6793 126.419 37.6793C125.756 37.6793 125.107 37.5368 124.47 37.2518C123.841 36.9667 123.317 36.5326 122.899 35.9492C122.488 35.3659 122.283 34.6301 122.283 33.7418V18.5487Z" fill="white"/>
</svg>
