<svg width="120" height="61" viewBox="0 0 120 61" fill="none" xmlns="http://www.w3.org/2000/svg">
<path d="M31.9877 9.26245V19.0554C31.9877 19.0554 31.9877 23.1358 7.50537 25.584V15.7911C7.50537 15.7911 31.9877 13.3428 31.9877 9.26245Z" fill="white"/>
<path d="M7.50537 28.8483C7.50537 28.8483 31.9877 26.4001 31.9877 22.3197V32.1126C31.9877 32.1126 31.9877 36.193 7.50537 38.6413V28.8483Z" fill="white"/>
<path d="M7.50537 51.6985V41.9055C7.50537 41.9055 31.9877 39.4573 31.9877 35.3769V45.1699C31.9877 45.1699 31.9877 49.2502 7.50537 51.6985Z" fill="white"/>
<path d="M41.439 40.3625L42.443 35.9285C43.635 36.2635 44.743 36.7445 45.915 36.8905C47.087 37.0365 48.3 36.9535 49.471 36.8275C50.141 36.7645 50.601 36.2415 50.684 35.5095C50.747 34.8095 50.391 34.2965 49.804 34.0035L47.568 32.9805L44.598 31.5585C42.653 30.4085 41.481 28.7345 41.608 26.3715C41.733 23.9865 42.948 22.2915 44.998 21.2055C46.964 20.1595 49.098 19.9295 51.273 20.1805C52.673 20.3475 54.033 20.7875 55.477 21.1425L54.307 25.5765C53.073 25.1995 51.902 24.8235 50.687 24.6965C49.85 24.6125 48.93 24.6965 48.135 24.9465C46.943 25.3235 46.795 26.6405 47.842 27.3315C48.574 27.8115 49.452 28.1055 50.268 28.4615C51.335 28.9635 52.464 29.3415 53.448 29.9675C57.443 32.4355 57.213 38.1455 53.072 40.3845C50.918 41.5345 48.596 41.8065 46.212 41.5975C44.612 41.4305 43.032 41.0955 41.442 40.3635L41.439 40.3625ZM86.682 41.2625H81.829L81.432 39.9225C80.219 41.1355 78.817 41.5955 77.228 41.5955C74.781 41.5955 72.982 40.2985 72.375 38.1025C71.747 35.8025 72.731 33.4795 74.801 32.2665C76.495 31.2835 78.357 31.0535 80.261 30.9065C80.491 30.8865 80.701 30.8865 80.931 30.8645C80.826 29.9845 80.324 29.5885 79.258 29.5045C77.522 29.3585 75.911 29.7345 74.238 30.5715L73.213 26.9515C74.553 26.5745 75.807 26.0515 77.123 25.9055C78.733 25.7385 80.407 25.7385 81.997 26.0105C84.653 26.4905 86.285 28.6255 86.41 31.5105C86.494 33.5185 86.473 35.5475 86.473 37.5555C86.493 38.7685 86.493 40.2755 86.683 41.2575L86.682 41.2625ZM81.139 34.3595C80.114 34.2335 79.215 34.4015 78.357 34.8825C77.771 35.2175 77.437 35.7825 77.583 36.4305C77.688 36.8485 77.96 37.3705 78.315 37.5805C79.403 38.2085 80.93 37.4135 81.097 36.1585C81.202 35.5725 81.139 34.9885 81.139 34.3585V34.3595ZM112.493 41.2415H107.64L107.243 39.9015C106.03 41.1145 104.628 41.5745 103.039 41.5745C100.592 41.5745 98.793 40.2775 98.186 38.0815C97.558 35.7815 98.542 33.4585 100.612 32.2455C102.306 31.2625 104.168 31.0325 106.072 30.8855C106.302 30.8655 106.512 30.8655 106.742 30.8435C106.637 29.9635 106.135 29.5675 105.069 29.4835C103.333 29.3375 101.722 29.7135 100.049 30.5505L99.024 26.9305C100.364 26.5535 101.618 26.0305 102.934 25.8845C104.544 25.7175 106.218 25.7175 107.808 25.9895C110.464 26.4695 112.096 28.6045 112.221 31.4895C112.305 33.4975 112.284 35.5265 112.284 37.5345C112.284 38.7685 112.304 40.2545 112.494 41.2365L112.493 41.2415ZM106.95 34.3385C105.925 34.2125 105.026 34.3805 104.168 34.8615C103.582 35.1965 103.248 35.7615 103.394 36.4095C103.499 36.8275 103.771 37.3495 104.126 37.5595C105.214 38.1875 106.741 37.3925 106.908 36.1375C107.013 35.5725 106.95 34.9675 106.95 34.3375V34.3385ZM69.928 30.3005C67.92 29.9035 66.038 29.5265 64.636 31.4105C63.756 32.6025 63.756 34.7155 64.636 35.8655C66.058 37.7685 68.026 37.3925 70.096 37.0355C70.284 38.2695 70.64 41.0725 70.64 41.0725C70.64 41.0725 70.62 41.0725 70.39 41.1565C66.625 42.1815 62.212 41.4495 60.224 39.1265C58.174 36.7415 57.924 33.9395 58.844 31.0315C59.744 28.1655 61.898 26.5765 64.744 25.9695C66.5479 25.5678 68.4231 25.6179 70.203 26.1155C70.3568 26.1555 70.5102 26.1976 70.663 26.2415L69.931 30.2995L69.928 30.3005ZM90.028 19.2985H95.425V41.2185H90.028V19.2985Z" fill="white"/>
</svg>
