<svg width="274" height="37" viewBox="0 0 274 37" fill="none" xmlns="http://www.w3.org/2000/svg">
<g clip-path="url(#clip0_0_617)">
<path fill-rule="evenodd" clip-rule="evenodd" d="M29.6177 20.9179C29.3177 22.3585 27.9842 26.0566 23.7312 28.0589L22.0235 26.1445L19.1414 29.0322C17.5018 29.0103 15.8892 28.6107 14.43 27.8648C12.9709 27.1187 11.7045 26.0464 10.73 24.7318C11.0361 24.8269 11.3522 24.8862 11.672 24.9086C12.1441 24.9171 12.6549 24.7446 12.6549 23.9546V16.1619C12.6615 15.9617 12.6211 15.7626 12.5368 15.5806C12.4526 15.3986 12.3269 15.2387 12.1696 15.1138C12.0124 14.9888 11.8281 14.9023 11.6314 14.861C11.4346 14.8196 11.2309 14.8246 11.0365 14.8756C9.70193 15.1822 8.63624 18.5008 8.63624 18.5008C8.62127 16.9686 8.94127 15.4516 9.57398 14.0552C10.2067 12.6587 11.1369 11.4163 12.3 10.4145C13.8309 9.09457 15.7048 8.23288 17.7059 7.92874C16.2488 8.75624 15.4305 10.1058 15.4305 11.2377C15.4305 13.0599 16.5315 12.8391 16.8574 12.5711V23.0886C16.9129 23.2204 16.9852 23.3448 17.0725 23.4584C17.218 23.659 17.4097 23.8221 17.6314 23.934C17.853 24.0459 18.0984 24.1033 18.3468 24.1014C19.449 24.1014 20.8792 22.8474 20.8792 22.8474V14.3344C20.8792 13.4683 20.2244 12.4221 19.5684 12.063C19.5684 12.063 20.7825 11.8487 21.7191 12.5636C21.8951 12.3494 22.0821 12.1443 22.2795 11.9494C24.4657 9.81098 26.525 9.20215 28.2402 8.89774C28.2402 8.89774 25.1217 11.3406 25.1217 14.6184C25.1217 17.0559 25.1851 23.0007 25.1851 23.0007C26.3422 24.1143 28.0627 22.5054 29.6177 20.9179Z" fill="white"/>
<path fill-rule="evenodd" clip-rule="evenodd" d="M37.0233 18.4805C37.0233 28.4216 29.0108 36.4805 19.1269 36.4805C9.24295 36.4805 1.23047 28.4216 1.23047 18.4805C1.23047 8.53934 9.24295 0.480469 19.1269 0.480469C29.0108 0.480469 37.0233 8.53934 37.0233 18.4805ZM19.1269 35.2391C28.3291 35.2391 35.789 27.7359 35.789 18.4805C35.789 9.22494 28.3291 1.72185 19.1269 1.72185C9.92461 1.72185 2.4647 9.22494 2.4647 18.4805C2.4647 27.7359 9.92461 35.2391 19.1269 35.2391Z" fill="white"/>
<path fill-rule="evenodd" clip-rule="evenodd" d="M186.422 25.7386H171.199V11.6905H186.182V14.7963H175.277V17.1872H185.604V20.1203H175.277V22.5404H186.42V25.7386H186.422Z" fill="white"/>
<path fill-rule="evenodd" clip-rule="evenodd" d="M274 25.7373H259.018V11.9099H273.765V14.9661H263.033V17.3194H273.198V20.2081H263.033V22.5904H274V25.7373Z" fill="white"/>
<path fill-rule="evenodd" clip-rule="evenodd" d="M207.061 25.7367H200.902L192.795 15.2289H192.714V25.7367H188.675V11.6887H194.932L202.941 22.2067H203.02V11.6887H207.059V25.7367H207.061Z" fill="white"/>
<path fill-rule="evenodd" clip-rule="evenodd" d="M255.869 25.7367H249.71L241.602 15.2289H241.522V25.7367H237.482V11.6887H243.74L251.749 22.2067H251.828V11.6887H255.866V25.7367H255.869Z" fill="white"/>
<path fill-rule="evenodd" clip-rule="evenodd" d="M218.963 25.922C217.671 25.922 216.555 25.8895 215.616 25.8262C214.678 25.763 213.881 25.6416 213.224 25.4602C212.568 25.2807 212.034 25.0292 211.625 24.7095C211.215 24.3897 210.897 23.9723 210.668 23.4593C210.442 22.9462 210.289 22.3237 210.212 21.5934C210.133 20.863 210.092 19.9977 210.092 18.9971V18.5867C210.092 17.5793 210.133 16.7072 210.216 15.97C210.298 15.2329 210.455 14.607 210.684 14.0938C210.914 13.5807 211.233 13.1651 211.643 12.8471C212.053 12.5307 212.586 12.2844 213.243 12.1065C213.899 11.9304 214.697 11.8107 215.636 11.7508C216.574 11.6909 217.682 11.6602 218.963 11.6602H219.584C220.661 11.6602 221.602 11.6841 222.408 11.7303C223.215 11.7764 223.909 11.862 224.492 11.9851C225.07 12.1082 225.551 12.2776 225.928 12.4913C226.306 12.7051 226.605 12.9771 226.824 13.3071C227.044 13.6372 227.197 14.0322 227.282 14.4923C227.366 14.9525 227.409 15.4895 227.409 16.1035V16.6438H223.452V16.4728C223.452 16.153 223.403 15.8845 223.304 15.6673C223.206 15.4501 223.012 15.2773 222.724 15.1474C222.435 15.0174 222.031 14.925 221.511 14.872C220.99 14.819 220.303 14.7916 219.451 14.7916H219.108C218.334 14.7916 217.674 14.8054 217.127 14.8309C216.579 14.8584 216.123 14.9165 215.759 15.0055C215.395 15.0961 215.106 15.2243 214.894 15.3902C214.682 15.5579 214.521 15.7836 214.418 16.071C214.313 16.3582 214.246 16.714 214.215 17.1364C214.187 17.5606 214.171 18.0685 214.171 18.662V18.9117C214.171 19.4914 214.187 19.9891 214.215 20.403C214.245 20.8169 214.313 21.1658 214.418 21.448C214.524 21.7319 214.682 21.9577 214.894 22.1235C215.106 22.2894 215.395 22.4177 215.759 22.5084C216.123 22.599 216.579 22.6571 217.127 22.6828C217.674 22.7102 218.334 22.7221 219.108 22.7221H219.451C220.08 22.7221 220.622 22.7102 221.079 22.6863C221.534 22.6623 221.917 22.6263 222.229 22.5768C222.54 22.5271 222.791 22.4571 222.978 22.3664C223.165 22.2757 223.308 22.1629 223.409 22.0261C223.512 21.8893 223.578 21.7284 223.612 21.5454C223.645 21.3625 223.661 21.1469 223.661 20.899V20.509H218.317V17.8085H227.571V20.9298C227.571 21.6037 227.527 22.1954 227.438 22.705C227.35 23.2147 227.191 23.6559 226.965 24.0253C226.739 24.3965 226.434 24.7026 226.05 24.9454C225.667 25.19 225.18 25.3833 224.588 25.5269C223.998 25.6707 223.291 25.7716 222.467 25.8314C221.644 25.8913 220.684 25.922 219.589 25.922H218.963Z" fill="white"/>
<path fill-rule="evenodd" clip-rule="evenodd" d="M234.505 25.763H230.41V11.8244H234.505V25.763Z" fill="white"/>
<path fill-rule="evenodd" clip-rule="evenodd" d="M56.511 25.9132C55.3769 25.9132 54.3821 25.8824 53.5268 25.8226C52.6714 25.7626 51.9335 25.6566 51.3128 25.5095C50.6922 25.3608 50.1787 25.1607 49.7706 24.9076C49.3625 24.6545 49.0377 24.338 48.7962 23.9567C48.5548 23.5752 48.383 23.1221 48.2844 22.597C48.1841 22.0703 48.1348 21.4579 48.1348 20.7568V11.665H52.2532V19.4108C52.2532 19.8897 52.2702 20.3001 52.3025 20.6439C52.3347 20.9877 52.4029 21.2801 52.5065 21.523C52.6086 21.7658 52.7565 21.9608 52.9486 22.1095C53.1408 22.2584 53.3958 22.3747 53.7155 22.4585C54.0335 22.5423 54.4247 22.5987 54.8889 22.6261C55.3531 22.6535 55.9074 22.6671 56.5501 22.6671H56.8987C57.5415 22.6671 58.0958 22.6517 58.56 22.621C59.0243 22.5902 59.4153 22.5354 59.7334 22.4534C60.0513 22.3729 60.3064 22.2566 60.4985 22.1044C60.6906 21.9522 60.8386 21.7572 60.9406 21.5179C61.0426 21.2784 61.1106 20.9859 61.1447 20.6387C61.1769 20.2915 61.1939 19.8829 61.1939 19.4108V11.665H65.3123V20.755C65.3123 21.4495 65.2664 22.0617 65.173 22.5902C65.0794 23.1204 64.9146 23.5752 64.6765 23.9549C64.4384 24.3363 64.1153 24.6527 63.7106 24.9058C63.3059 25.159 62.794 25.3591 62.1734 25.5079C61.5527 25.6566 60.8113 25.761 59.951 25.8209C59.0888 25.8824 58.0839 25.9115 56.9361 25.9115H56.511V25.9132Z" fill="white"/>
<path fill-rule="evenodd" clip-rule="evenodd" d="M86.4907 25.7386H80.3335L72.2258 15.2017H72.146V25.7386H68.1074V11.6529H74.365L82.3739 22.2H82.4539V11.6529H86.4923V25.7386H86.4907Z" fill="white"/>
<path fill-rule="evenodd" clip-rule="evenodd" d="M98.6311 18.7624C99.3402 18.7624 99.9065 18.7402 100.328 18.6975C100.75 18.653 101.069 18.5624 101.287 18.4239C101.507 18.2853 101.649 18.0938 101.716 17.8475C101.782 17.6012 101.816 17.2762 101.816 16.8709V16.6281C101.816 16.2296 101.782 15.908 101.716 15.6618C101.649 15.4155 101.505 15.2273 101.282 15.0956C101.059 14.9639 100.738 14.8768 100.318 14.8323C99.8962 14.7877 99.335 14.7673 98.6311 14.7673H93.4976V18.7624H98.6311ZM105.963 25.7386H101.894V24.5961C101.894 24.1857 101.877 23.8317 101.845 23.5341C101.811 23.2382 101.743 22.9868 101.636 22.7816C101.53 22.5763 101.381 22.4104 101.188 22.2856C100.996 22.1608 100.743 22.065 100.427 21.9966C100.112 21.9299 99.7244 21.8837 99.2637 21.8598C98.8028 21.8358 98.2536 21.8238 97.6177 21.8238H93.4992V25.737H89.4199V11.6529H100.284C101.425 11.6529 102.363 11.723 103.1 11.865C103.836 12.0069 104.416 12.2446 104.841 12.5781C105.266 12.9117 105.559 13.3528 105.722 13.9036C105.885 14.4526 105.965 15.1316 105.965 15.9405V16.4365C105.965 16.989 105.922 17.473 105.836 17.8869C105.749 18.3007 105.61 18.6581 105.417 18.9592C105.225 19.2585 104.977 19.5065 104.671 19.7031C104.367 19.898 103.991 20.0469 103.547 20.1478V20.2281C104.037 20.3085 104.44 20.4128 104.756 20.536C105.071 20.6608 105.317 20.8456 105.497 21.0918C105.676 21.3381 105.798 21.6597 105.865 22.0581C105.931 22.4566 105.963 22.9646 105.963 23.5854V25.7386Z" fill="white"/>
<path fill-rule="evenodd" clip-rule="evenodd" d="M123.856 25.7386H108.636V11.6529H123.618V14.7673H112.715V17.1634H123.042V20.1049H112.715V22.5318H123.856V25.7386Z" fill="white"/>
<path fill-rule="evenodd" clip-rule="evenodd" d="M137.617 20.279L134.762 14.6266H134.662L131.827 20.279H137.617ZM144.831 25.7501H140.384L139.1 23.2224H130.364L129.102 25.7501H124.694L132.215 11.6644H137.269L144.831 25.7501Z" fill="white"/>
<path fill-rule="evenodd" clip-rule="evenodd" d="M159.826 25.75H146.335V11.6626H150.454V22.4731H159.824V25.75H159.826Z" fill="white"/>
</g>
<defs>
<clipPath id="clip0_0_617">
<rect width="274" height="36" fill="white" transform="translate(0 0.480469)"/>
</clipPath>
</defs>
</svg>
