<svg width="148" height="35" viewBox="0 0 148 35" fill="none" xmlns="http://www.w3.org/2000/svg">
<g clip-path="url(#clip0_0_645)">
<path d="M50.9566 7.22889C50.8194 7.29569 50.4422 7.78554 50.1222 8.3088C49.3678 9.56685 49.3335 9.62251 49.3335 9.80064C49.3335 9.87858 49.745 10.747 50.2594 11.7155C53.1741 17.3044 55.243 21.2678 56.9918 24.63C58.0663 26.7119 59.0607 28.5266 59.1979 28.6713C59.4265 28.9051 59.5065 28.9163 61.3354 28.9163C63.0156 28.9163 63.2671 28.894 63.4271 28.7159C63.61 28.5266 64.0672 27.6693 67.2791 21.5127C68.205 19.7314 69.6909 16.8813 70.5939 15.1668C73.3829 9.84518 73.2572 10.1235 73.1886 9.66705C73.1086 9.04359 72.1027 7.48495 71.6455 7.27342C71.1426 7.03962 70.3425 7.03962 70.0338 7.28455C69.9081 7.39588 68.4907 10.0122 66.9019 13.1072C65.3017 16.2022 63.9415 18.8296 63.8729 18.9521C63.8157 19.0746 63.6443 19.3863 63.5185 19.6423C63.3928 19.8984 63.2442 20.199 63.1756 20.3103C63.1185 20.4217 62.9585 20.7223 62.8327 20.9783C62.707 21.2344 62.5584 21.535 62.4898 21.6463C62.4327 21.7576 62.2612 22.0805 62.124 22.3811C61.7926 23.0602 61.5411 23.2829 61.1868 23.1938C60.9696 23.1493 60.3066 21.9469 57.289 16.0909C55.2887 12.2165 53.4484 8.65393 53.197 8.1752C52.9455 7.70761 52.6483 7.26229 52.534 7.20662C52.2597 7.06189 51.2881 7.07302 50.9566 7.22889ZM84.4132 7.26229C84.2532 7.35135 83.8417 7.86348 83.4988 8.39787L82.8815 9.37758L82.8472 18.8519C82.8244 28.3151 82.8244 28.3262 83.0644 28.6157L83.293 28.9163H86.7107L86.9393 28.5489C87.1565 28.2037 87.1679 27.9699 87.1679 18.0837C87.1679 7.21775 87.1793 7.50722 86.6078 7.20662C86.2763 7.03962 84.7675 7.07302 84.4132 7.26229ZM98.2782 7.24002C97.981 7.37362 96.6551 9.46665 96.6551 9.78951C96.6551 9.90084 97.4095 11.4261 98.3239 13.1851C100.621 17.5827 103.582 23.2606 105.068 26.133C105.754 27.4467 106.405 28.6045 106.519 28.7159C106.691 28.894 106.942 28.9163 108.634 28.9163C110.326 28.9163 110.589 28.894 110.749 28.7159C110.84 28.6157 111.617 27.2018 112.463 25.5763C114.441 21.7799 117.207 16.4805 119.07 12.9179C119.882 11.3704 120.545 9.97877 120.545 9.82291C120.545 9.57798 120.224 8.92113 119.561 7.79668C119.15 7.10642 117.824 6.83923 117.298 7.35135C117.161 7.48495 116.555 8.55373 115.95 9.71158C110.977 19.3974 109.08 23.0157 108.943 23.127C108.851 23.205 108.646 23.2384 108.497 23.1938C108.223 23.127 107.502 21.7799 101.879 10.8249C100.941 8.98792 100.061 7.39588 99.9242 7.29569C99.6498 7.07302 98.7011 7.03962 98.2782 7.24002ZM131.735 7.26229C131.575 7.35135 131.163 7.86348 130.82 8.39787L130.203 9.37758L130.169 17.8944C130.135 27.3799 130.055 26.389 130.923 27.8586C131.609 29.0165 130.809 28.9163 139.016 28.9163H146.217L146.514 28.6157C146.754 28.3596 147.291 27.5135 147.76 26.6674C147.943 26.3334 147.886 25.5652 147.669 25.3982C147.497 25.2757 146.217 25.2535 141.108 25.2423C134.878 25.2423 134.752 25.2423 134.512 25.0197C134.272 24.797 134.261 24.7079 134.261 22.5147C134.261 20.5998 134.284 20.2213 134.444 20.0765C134.592 19.9207 135.175 19.8984 138.982 19.8984C144.4 19.8984 143.92 20.0765 143.92 18.028C143.92 16.7589 143.897 16.5473 143.702 16.3469C143.485 16.1131 143.417 16.1131 139.05 16.1131H134.615L134.444 15.8682C134.295 15.6678 134.261 15.2336 134.261 13.4969C134.261 11.7601 134.295 11.3259 134.444 11.1255L134.615 10.8806H141.051C147.143 10.8806 147.497 10.8694 147.669 10.6802C148 10.3239 147.909 9.67818 147.406 8.83206C147.154 8.42013 146.949 8.04161 146.949 7.99707C146.937 7.86348 146.434 7.34022 146.183 7.21775C146.011 7.12869 143.931 7.09529 138.982 7.09529C133.221 7.10642 131.986 7.12869 131.735 7.26229Z" fill="white"/>
</g>
<path d="M38.1727 28.9488L35.6646 33.2265C35.222 34.0378 34.4106 34.4805 33.5254 34.4805H4.97923C4.09404 34.4805 3.28261 34.0378 2.84001 33.2265L0.331949 28.9488C-0.11065 28.2113 -0.11065 27.2527 0.331949 26.4415L14.7159 1.73439C15.1585 0.923172 15.9699 0.480469 16.8551 0.480469H21.797C22.6822 0.480469 23.4936 0.923172 23.9362 1.73439L38.2464 26.4415C38.689 27.179 38.689 28.1376 38.1727 28.9488ZM29.69 22.9013C28.6573 18.1809 26.223 13.9774 22.8297 10.8794C20.838 9.03587 17.8141 9.03587 15.8224 10.8794C12.3554 14.0511 9.9211 18.1809 8.96214 22.9013C8.44625 25.4828 9.99487 27.9902 12.5029 28.8014C14.6421 29.4653 16.9289 29.8343 19.2894 29.8343C21.6495 29.8343 23.9362 29.4653 26.0755 28.8014C28.6573 28.0639 30.1326 25.4828 29.69 22.9013Z" fill="white"/>
<defs>
<clipPath id="clip0_0_645">
<rect width="98.6667" height="25.9474" fill="white" transform="translate(49.3335 4.95416)"/>
</clipPath>
</defs>
</svg>
